<svg xmlns="http://www.w3.org/2000/svg" width="454.801" height="472.307" viewBox="0 0 454.801 472.307">
  <g id="hands-up" transform="translate(1.5 1.5)">
    <path id="Path_64" data-name="Path 64" d="M69.433,161.106a19.353,19.353,0,0,1,1.931,7.39,19.57,19.57,0,0,1,24.561,18.9l.045,58.842a25.915,25.915,0,0,1,33.181.081l3.577,2.75a7.25,7.25,0,0,1,1.907,9.292L99.925,320.547,90.8,469.307h81.66l-8.681-80.682-34.794-62.309a7.3,7.3,0,0,1,1.911-9.329l3.577-2.77a25.5,25.5,0,0,1,9.5-5.043l9.353-155.881a7.315,7.315,0,0,1,.917-3.112l32.46-58.219A11.241,11.241,0,0,0,171.983,93.8L162.047,105.1a7.3,7.3,0,0,1-12.784-4.819l-.057-77.712a4.968,4.968,0,0,0-9.928-.277c0,7.94,0,16.568,0,24.773,0,18.018-.008,33.857,0,35.389a7.226,7.226,0,0,1-7.28,7.243h-.024a7.219,7.219,0,0,1-7.28-7.2c0-1.536.016-17.358.02-35.405,0-5.923.045-12.079.049-18.031,0-.1.077-.2.077-.3V4.774A4.957,4.957,0,0,0,119.711,0h-.289a4.856,4.856,0,0,0-5.015,4.783V82.551a7.3,7.3,0,0,1-14.6,0V14.841a5.221,5.221,0,0,0-10.429,0V82.551a7.3,7.3,0,0,1-14.6,0V42.636c0-2.738-1.711-5.088-4.449-5.088h-.273a5.024,5.024,0,0,0-4.966,5.011c-.024,10.062,2.057,61.828,4.261,116.568Zm0,0" transform="translate(2.792 0)" fill="#b4cd95" stroke="#fff" stroke-width="3"/>
    <path id="Path_65" data-name="Path 65" d="M423.034,251.869l-9.936,11.3a7.3,7.3,0,0,1-12.78-4.819l-.061-77.716a4.968,4.968,0,0,0-9.928-.285V205.11c0,18.018-.008,33.837,0,35.373a7.205,7.205,0,0,1-7.28,7.211h-.028a7.191,7.191,0,0,1-7.284-7.158c0-1.536.008-17.326.012-35.369,0-5.927.033-12.079.033-18.035,0-.1.053-.2.053-.293V162.852A4.968,4.968,0,0,0,370.763,158h-.289a4.967,4.967,0,0,0-5.068,4.856v77.765a7.3,7.3,0,1,1-14.6,0V172.918a4.7,4.7,0,1,0-9.386,0v67.711a7.3,7.3,0,0,1-14.6,0V200.71a5.565,5.565,0,0,0-5.439-5.162h-.273a5.018,5.018,0,0,0-4.966,5.007c-.024,10.03,2.049,61.568,4.241,116.071,2.4,59.531,4.868,120.874,5.377,145.9h69.353l9.276-151.265a6.927,6.927,0,0,1,.908-3.019l32.464-58.219a11.245,11.245,0,0,0-14.727,1.841Zm0,0" transform="translate(13.561 6.778)" fill="#b4cd95" stroke="#fff" stroke-width="3"/>
    <path id="Path_66" data-name="Path 66" d="M179.019,245.728l-.057,77.712a7.3,7.3,0,0,1-12.78,4.811l-9.94-11.3A11.241,11.241,0,0,0,141.52,315.1l32.464,58.194a7.1,7.1,0,0,1,.88,2.729l8.995,83.721h69.674c.558-21.9,3.116-68.065,5.406-108.91,2.171-38.722,4.22-75.28,4.2-85.192a5.1,5.1,0,0,0-4.966-5.092H257.9a5.194,5.194,0,0,0-4.933,5.251v39.915a7.3,7.3,0,0,1-14.6,0V238a5.221,5.221,0,0,0-10.429,0v67.711a7.3,7.3,0,0,1-14.6,0V227.949c0-2.738-1.792-4.946-4.53-4.946h-.289a4.628,4.628,0,0,0-4.567,4.942v23.987c0,.106-.2.159-.2.257,0,5.952-.191,12.067-.191,17.99,0,18.043.008,33.87,0,35.405a7.164,7.164,0,0,1-7.3,7.113h-.024a7.15,7.15,0,0,1-7.272-7.166c0-1.532,0-17.253,0-35.267v-24.8a4.967,4.967,0,0,0-9.928.265Zm0,0" transform="translate(6.071 9.566)" fill="#b4cd95" stroke="#fff" stroke-width="3"/>
    <path id="Path_67" data-name="Path 67" d="M239.986,181.171l3.08,50.145a19.555,19.555,0,0,1,7.1,15.053v8.865a15.694,15.694,0,0,1,4.933-.925h.273A19.662,19.662,0,0,1,274.943,273.9c.024,10.335-1.939,45.5-4.22,86.137-2.277,40.661-4.823,86.169-5.377,108.07h50.507c-.521-25.029-3.076-88.614-5.361-145.317-2.294-57.037-4.277-106.213-4.253-116.556a19.6,19.6,0,0,1,17.729-19.424l.02-.481c2.188-54.41,4.257-105.8,4.233-115.823a4.979,4.979,0,0,0-4.966-4.958h-.273a5.032,5.032,0,0,0-5.023,4.978v39.915a7.3,7.3,0,1,1-14.6,0V42.73a5.221,5.221,0,0,0-10.429,0v67.711a7.3,7.3,0,0,1-14.6,0V32.676c0-2.738-1.7-4.673-4.44-4.673H273.6a4.466,4.466,0,0,0-4.656,4.669V56.658c0,.1-.155.191-.155.289,0,5.956-.151,12.1-.147,18.027,0,18.043,0,33.939,0,35.475a7.28,7.28,0,0,1-7.3,7.247h-.028a7.274,7.274,0,0,1-7.276-7.3c.008-1.536,0-17.387,0-35.405V50.2a4.965,4.965,0,0,0-9.924.261l-.061,77.712a7.3,7.3,0,0,1-12.78,4.819l-9.936-11.3a11.241,11.241,0,0,0-14.723-1.841l32.464,58.219a7.344,7.344,0,0,1,.908,3.1Zm0,0" transform="translate(8.863 1.201)" fill="#b4cd95" stroke="#fff" stroke-width="3"/>
    <path id="Path_68" data-name="Path 68" d="M88.247,311.265a6.926,6.926,0,0,1,.908-3.019l32.464-58.219a11.241,11.241,0,0,0-14.723,1.845l-9.94,11.293a7.3,7.3,0,0,1-12.78-4.815l-.061-77.716a4.967,4.967,0,0,0-9.928-.24c0,7.508,0,15.643,0,23.437,0,18.1-.008,35.088,0,36.644a7.2,7.2,0,0,1-7.272,7.219H66.88a7.177,7.177,0,0,1-7.268-7.158c0-1.585.033-17.8.037-36.709,0-5.52.065-11.207.065-16.723,0-.09.126-.179.126-.269V162.848A5.1,5.1,0,0,0,54.626,158h-.289a4.841,4.841,0,0,0-4.925,4.856v77.765a7.3,7.3,0,0,1-14.6,0V172.918a5.221,5.221,0,0,0-10.429,0v67.711a7.3,7.3,0,0,1-14.6,0V200.71c0-2.738-1.8-5.162-4.542-5.162H4.966A5.018,5.018,0,0,0,0,200.555c-.024,10.034,2.049,61.568,4.245,116.071,2.4,59.531,4.868,120.874,5.373,145.9H78.971Zm0,0" transform="translate(0 6.778)" fill="#b4cd95" stroke="#fff" stroke-width="3"/>
  </g>
</svg>
