<?xml version="1.0" standalone="no"?>
<!DOCTYPE svg PUBLIC "-//W3C//DTD SVG 1.1//EN" "http://www.w3.org/Graphics/SVG/1.1/DTD/svg11.dtd" >
<svg xmlns="http://www.w3.org/2000/svg">
<metadata>Generated by IcoMoon</metadata>
<defs>
<font id="icomoon" horiz-adv-x="1024">
<font-face units-per-em="1024" ascent="960" descent="-64" />
<missing-glyph horiz-adv-x="1024" />
<glyph unicode="&#x20;" horiz-adv-x="512" d="" />
<glyph unicode="&#xe900;" glyph-name="facebook" horiz-adv-x="1025" d="M542.231 960c19.471-3.074 39.966-4.099 59.462-8.198 158.628-27.462 289.768-125.842 361.497-260.643l1.322-2.723c37.989-66.738 60.383-146.63 60.383-231.753 0-10.401-0.334-20.724-0.993-30.958l0.072 1.395c-6.628-186.561-113.359-346.744-267.864-429.077l-2.726-1.326c-66.061-38.072-145.282-60.532-229.748-60.532-11.107 0-22.124 0.388-33.037 1.152l1.47-0.083c-187.182 5.473-348.158 112.483-430.263 267.653l-1.318 2.732c-32.688 58.309-53.784 127.195-58.369 200.557l-0.069 1.374c-0.076 3.002-0.824 5.812-2.1 8.307l0.051-0.109v60.589c1.025 3.074 1.025 6.149 2.050 8.198 4.662 74.717 25.756 143.584 59.683 204.307l-1.246-2.427c72.734 137.403 203.526 235.766 358.806 262.929l3.014 0.437c19.471 4.099 38.839 5.124 59.334 8.198zM511.488-17.834c0.145 0 0.316 0 0.486 0 257.287 0 465.86 208.573 465.86 465.86s-208.573 465.86-465.86 465.86c-257.107 0-465.568-208.281-465.859-465.32v-0.028c0.087-257.175 208.253-465.702 465.283-466.372h0.064zM453.050 437.137h-46.115v69.812h46.115c0 20.495-1.025 39.966 0 59.462-0.053 1.027-0.083 2.23-0.083 3.441 0 33.088 22.403 60.944 52.868 69.227l0.503 0.116c11.431 2.791 25.074 4.97 39.017 6.087l0.949 0.061c22.545 1.025 45.090 0 68.685 0v-69.71h-33.843c-30.743 0-35.867-5.124-35.867-35.867v-32.793h69.71c-3.074-24.594-5.124-47.139-8.198-70.735h-62.511v-209.181h-92.229c0.999 70.812 0.999 139.471 0.999 210.078z" />
<glyph unicode="&#xe901;" glyph-name="Group-3" d="M511.98 960c-0.051 0-0.111 0-0.172 0-282.77 0-512-229.23-512-512s229.23-512 512-512c281.633 0 510.156 227.391 511.989 508.592l0.001 0.175c0.003 0.673 0.005 1.468 0.005 2.264 0 282.902-229.011 512.316-511.76 512.968h-0.063zM600.095 448.283l-156.287 156.227c-8.304 8.284-16.952 16.265-24.751 25.014-5.607 6.014-9.048 14.11-9.048 23.011 0 16.608 11.984 30.416 27.776 33.251l0.205 0.031c1.849 0.343 3.976 0.539 6.149 0.539 10.928 0 20.698-4.957 27.184-12.746l0.046-0.057q98.278-98.561 196.799-196.88c8.954-6.447 14.716-16.842 14.716-28.583 0-11.688-5.711-22.043-14.494-28.426l-0.101-0.070-196.092-195.991c-2.425-2.581-4.95-4.978-7.605-7.225l-0.133-0.11c-5.733-4.635-13.111-7.441-21.145-7.441-14.833 0-27.431 9.565-31.965 22.863l-0.070 0.238c-1.22 3.377-1.925 7.274-1.925 11.336 0 10.558 4.763 20.003 12.258 26.303l0.052 0.043q84.983 84.7 169.724 169.724c2.728 2.728 5.334 5.556 8.729 9.113z" />
<glyph unicode="&#xe902;" glyph-name="Group-16" d="M1018.407 442.276c-6.246-10.609-12.778-19.766-20.012-28.308l0.241 0.292q-98.199-98.882-197.264-196.923c-7.344-8.453-18.111-13.767-30.119-13.767-21.998 0-39.831 17.833-39.831 39.831 0 11.459 4.839 21.788 12.585 29.054l0.022 0.020q64.328 64.512 128.919 128.656c2.494 2.494 4.857 5.12 8.796 9.295h-836.923c-1.305-0.149-2.817-0.234-4.35-0.234-18.043 0-33.335 11.779-38.604 28.067l-0.080 0.287c-1.138 3.532-1.794 7.596-1.794 11.813 0 20.965 16.219 38.142 36.794 39.668l0.132 0.008c3.623 0.263 7.299 0 10.949 0h833.904c-3.807 4.017-6.249 6.748-8.848 9.321q-64.486 64.354-128.998 128.656c-7.969 7.204-12.955 17.579-12.955 29.118 0 4.249 0.676 8.34 1.926 12.172l-0.078-0.277c3.829 14.214 15.42 24.953 29.838 27.484l0.226 0.033c2.458 0.543 5.281 0.853 8.176 0.853 11.842 0 22.471-5.199 29.726-13.439l0.038-0.044q72.1-72.1 144.41-143.99c17.854-17.802 36.155-35.21 53.353-53.642 6.789-8.228 13.319-17.375 19.198-26.964l0.6-1.052z" />
<glyph unicode="&#xe903;" glyph-name="instagram" d="M541.202 960c19.477-3.071 39.977-4.095 59.454-8.19 158.491-27.866 289.495-126.139 361.512-260.717l1.328-2.718c37.986-66.737 60.378-146.627 60.378-231.747 0-10.419-0.336-20.76-0.996-31.012l0.072 1.397c-6.571-186.585-113.276-346.811-267.775-429.184l-2.724-1.326c-66.059-38.069-145.276-60.528-229.739-60.528-11.127 0-22.163 0.39-33.095 1.156l1.472-0.083c-186.625 6.532-346.897 113.248-429.287 267.775l-1.326 2.724c-32.698 58.342-53.793 127.266-58.362 200.667l-0.068 1.368c-0.076 2.999-0.824 5.806-2.098 8.299l0.051-0.109v60.478c1.024 3.071 1.024 6.142 2.047 8.19 4.654 74.735 25.746 143.622 59.676 204.362l-1.246-2.429c73.036 137.16 203.676 235.409 358.761 262.985l3.056 0.45c19.477 4.095 38.953 5.119 59.454 8.19zM510.49-17.855c0.273-0.001 0.597-0.001 0.92-0.001 257.002 0 465.343 208.341 465.343 465.343s-208.341 465.343-465.343 465.343c-256.633 0-464.744-207.743-465.342-464.235v-0.057c0.084-256.837 207.693-465.157 464.252-466.392h0.118zM712.372 553.19v-207.052c-1.024-4.095-1.024-7.166-2.047-11.287-9.834-49.461-52.887-86.225-104.527-86.225-0.008 0-0.016 0-0.024 0h-187.574c-0.561-0.027-1.218-0.042-1.88-0.042-3.336 0-6.581 0.388-9.692 1.122l0.285-0.057c-53.249 5.253-94.602 49.464-95.31 103.48l-0.001 0.071v192.694c0.68 47.274 32.083 87.035 75.106 100.256l0.754 0.199c5.99 1.66 13.291 3.097 20.752 4.017l0.772 0.078h207.052c1.024 0 2.047-1.024 3.071-1.024 43.43-4.831 78.578-35.466 90.013-76.039l0.179-0.742c1.024-6.245 2.047-12.387 3.071-19.451zM412.057 449.536c0.087-55.445 45.010-100.368 100.446-100.455h0.008c54.85 0.364 99.173 44.912 99.173 99.813 0 55.126-44.689 99.815-99.815 99.815-54.901 0-99.449-44.324-99.813-99.139v-0.035zM611.943 562.275c-0.007-0.149-0.011-0.324-0.011-0.5 0-6.516 5.282-11.799 11.799-11.799s11.799 5.282 11.799 11.799c0 6.332-4.989 11.5-11.25 11.786l-0.026 0.001c-0.208 0.013-0.452 0.021-0.697 0.021-6.304 0-11.438-5.009-11.639-11.264v-0.018zM511.463 373.702c-42.002 0.233-75.96 34.336-75.96 76.37 0 42.179 34.193 76.371 76.371 76.371s76.371-34.193 76.371-76.371c0-0.18-0.001-0.359-0.002-0.538v0.028c-0.026-41.904-34.003-75.864-75.911-75.864-0.306 0-0.612 0.002-0.917 0.005h0.047z" />
<glyph unicode="&#xe904;" glyph-name="search" horiz-adv-x="1023" d="M687.725 227.547l9.515 5.695 8.578-8.578c0.937-0.937 3.82-2.847 5.695-4.758l248.296-244.475c2.689-2.014 6.080-3.226 9.755-3.226 2.323 0 4.532 0.484 6.534 1.356l-0.105-0.041c5.234 1.733 9.184 6.005 10.431 11.319l0.021 0.106c0.937 5.695 0 11.425-8.578 19.967-40.764 40.908-82.717 80.879-123.661 121.787l-11.425 11.425c-35.213 34.24-70.391 68.481-104.523 102.757-1.141 0.53-2.125 1.156-3.014 1.893l0.023-0.018c-1.017 0.976-2.323 1.658-3.778 1.904l-0.042 0.006-13.336 8.578 13.336 17.12c1.401 2.154 2.971 4.022 4.741 5.679l0.017 0.016c26.138 29.439 48.152 63.345 64.638 100.262l0.995 2.495c20.059 44.437 31.747 96.339 31.747 150.971 0 28.77-3.241 56.783-9.378 83.693l0.482-2.515c-15.977 74.95-52.255 139.718-102.76 190.271l0.003-0.003c-54.912 58.080-127.288 99.128-208.706 114.732l-2.431 0.388c-10.452 1.91-21.878 3.82-33.303 5.695-4.459 0.979-9.693 1.662-15.042 1.903l-0.204 0.007h-57.055c-3.82-0.937-8.578-0.937-14.417-1.91-10.452-1.91-21.878-2.847-32.438-4.758-76.611-14.019-143.358-49.156-195.91-99.091l0.164 0.154c-63.557-58.241-107.759-136.684-122.412-225.106l-0.313-2.286c-0.937-6.668-1.91-14.417-2.847-20.941l-0.973-9.479v-56.118c0.639-1.551 1.010-3.351 1.010-5.238 0-0.503-0.026-1.001-0.078-1.491l0.005 0.061 2.847-17.12c1.488-12.938 3.489-24.262 6.101-35.35l-0.407 2.046c22.774-100.839 83.036-184.707 165.033-237.915l1.482-0.902c53.386-36.472 118.123-60.228 188.014-65.553l1.317-0.081c10.442-1.011 22.574-1.588 34.841-1.588 61.814 0 120.207 14.644 171.901 40.652l-2.201-1.004c19.030 9.515 36.042 19.967 55.181 31.393 9.515 4.758 18.093 10.452 26.635 15.21zM486.969 179.034c-14.417-1.91-27.572-2.847-39.971-3.82l-1.91 4.758v-4.758c-4.758 0-9.515-0.937-14.417-0.937h-1.766c-134.676 2.099-251.557 76.297-313.953 185.614l-0.95 1.806c-24.898 44.196-40.465 96.637-42.725 152.506l-0.022 0.674c-0.309 5.516-0.485 11.97-0.485 18.466 0 98.679 40.607 187.874 106.022 251.787l0.067 0.066c53.483 54.042 124.452 90.685 203.715 100.74l1.726 0.179c16.345 2.633 35.187 4.138 54.381 4.138 98.64 0 187.999-39.736 252.944-104.075l-0.028 0.027c54.468-51.371 91.732-120.458 102.554-198.013l0.202-1.77c3.029-17.159 4.76-36.915 4.76-57.076 0-97.492-40.49-185.528-105.571-248.208l-0.108-0.104c-53.178-54.166-123.731-91.111-202.623-101.799l-1.809-0.201z" />
<glyph unicode="&#xe905;" glyph-name="twitter" d="M541.689 960c19.451-3.071 39.926-4.095 59.403-8.19 158.693-27.57 289.789-126.29 361.137-261.435l1.32-2.742c37.951-66.672 60.323-146.484 60.323-231.521 0-10.391-0.334-20.703-0.992-30.927l0.072 1.394c-6.312-186.711-113.5-346.998-268.544-428.653l-2.748-1.319c-65.995-38.034-145.137-60.472-229.519-60.472-11.096 0-22.102 0.388-33.004 1.151l1.468-0.082c-186.458 6.341-346.597 113.067-428.651 267.592l-1.321 2.728c-32.702 58.194-53.842 126.948-58.512 200.179l-0.071 1.396c-0.055 3.042-0.805 5.896-2.098 8.427l0.051-0.109v60.299c1.024 3.071 1.024 6.142 2.047 8.19 4.649 74.66 25.723 143.477 59.623 204.154l-1.244-2.425c72.673 137.893 203.779 236.614 359.475 263.743l3.007 0.434c19.451 4.095 39.926 5.119 59.403 8.19zM511.872 913.932c-0.243 0-0.53 0.001-0.818 0.001-257.256 0-465.804-208.547-465.804-465.804s208.547-465.804 465.804-465.804c256.86 0 465.161 207.906 465.802 464.615v0.061c0 0.062 0 0.135 0 0.208 0 257.153-207.969 465.733-464.89 466.721h-0.094zM531.451 519.688c-1.074 5.378-1.688 11.56-1.688 17.886 0 52.794 42.798 95.592 95.592 95.592 24.55 0 46.938-9.254 63.866-24.465l-0.088 0.078c2.58-2.536 6.12-4.101 10.026-4.101 1.92 0 3.752 0.378 5.425 1.064l-0.095-0.035c16.38 6.142 32.76 12.285 50.163 18.427-7.751-19.771-20.029-36.328-35.613-48.968l-0.218-0.171c15.356 4.095 30.712 8.19 47.092 12.285l2.047-2.047c-11.306-12.823-23.008-24.525-35.403-35.46l-0.428-0.371c-6.231-4.375-10.253-11.529-10.253-19.623 0-0.3 0.006-0.598 0.016-0.895l-0.001 0.043c-2.492-148.337-123.327-267.631-272.024-267.631-50.672 0-98.108 13.853-138.729 37.979l1.255-0.69c-2.047 1.024-4.095 3.071-9.214 6.142 5.932-0.628 12.816-0.986 19.783-0.986 45.061 0 86.621 14.987 119.969 40.249l-0.496-0.36c-40.847 1.53-75.103 28.128-87.937 64.789l-0.207 0.679h38.902c-50.163 22.522-72.711 52.211-71.662 93.186 12.285-3.071 24.57-7.166 36.855-10.237 0 1.024 1.024 2.047 1.024 3.071-18.043 13.377-31.165 32.492-36.712 54.612l-0.142 0.67c-1.332 5.955-2.096 12.795-2.096 19.813 0 17.183 4.576 33.297 12.577 47.189l-0.244-0.459c48.924-56.223 119.123-92.839 197.923-97.223l0.734-0.033z" />
<glyph unicode="&#xe906;" glyph-name="youtube" d="M512 592.399h122.849c0.433 0.009 0.943 0.014 1.454 0.014 34.608 0 63.954-22.529 74.172-53.72l0.156-0.552c1.951-6.883 3.073-14.789 3.073-22.956 0-0.207-0.001-0.415-0.002-0.622v0.032-133.087c0.002-0.206 0.003-0.45 0.003-0.694 0-42.603-34.536-77.139-77.139-77.139-0.244 0-0.488 0.001-0.731 0.003h-248.758c-0.391-0.007-0.853-0.011-1.316-0.011-42.264 0-76.525 34.261-76.525 76.525 0 0.445 0.004 0.889 0.011 1.332l-0.001-0.067v133.087c-0.009 0.442-0.014 0.963-0.014 1.486 0 37.965 27.768 69.445 64.102 75.238l0.434 0.057c4.106 0.678 8.839 1.066 13.661 1.066 0.956 0 1.909-0.015 2.857-0.045l-0.139 0.003zM458.765 385.552c35.831 20.475 70.664 40.95 105.471 62.474-35.831 20.475-70.664 40.95-105.471 62.474zM541.689 960c19.451-3.071 39.926-4.095 59.403-8.19 158.574-27.869 289.557-126.486 361.132-261.439l1.325-2.738c37.951-66.672 60.323-146.484 60.323-231.521 0-10.391-0.334-20.703-0.992-30.927l0.072 1.394c-6.312-186.711-113.5-346.998-268.544-428.653l-2.748-1.319c-65.995-38.034-145.137-60.472-229.519-60.472-11.096 0-22.102 0.388-33.004 1.151l1.468-0.082c-186.458 6.341-346.597 113.067-428.651 267.592l-1.321 2.728c-32.702 58.194-53.842 126.948-58.512 200.179l-0.071 1.396c-0.055 3.042-0.805 5.896-2.098 8.427l0.051-0.109v60.299c1.024 3.071 1.024 6.142 2.047 8.19 4.649 74.66 25.723 143.477 59.623 204.154l-1.244-2.425c73.22 137.429 204.062 235.909 359.405 263.72l3.077 0.457c19.451 4.095 39.926 5.119 59.403 8.19zM510.976-16.857c0.296-0.001 0.646-0.001 0.997-0.001 256.747 0 464.882 208.135 464.882 464.882s-208.135 464.882-464.882 464.882c-256.387 0-464.298-207.551-464.881-463.802v-0.056c0.084-256.56 207.461-464.656 463.739-465.905h0.119z" />
<glyph unicode="&#xe907;" horiz-adv-x="1214" d="M1213.656 26.594c-4.003-21.049-12.868-39.559-25.394-54.974l0.178 0.226c-14.246-18.46-35.502-30.912-59.712-33.352l-0.362-0.030c-55.724-1.861-111.554-0.593-164.673-0.593 0.64 34.172 1.745 69.065 1.861 103.959 0.279 85.581 0 171.151 0.14 256.733 0.101 2.818 0.159 6.129 0.159 9.454 0 29.981-4.699 58.864-13.4 85.954l0.552-1.988c-0.447 2.103-0.72 4.533-0.756 7.021v0.028c49.293-2.931 98.864 7.083 146.11-10.34 60.33-20.346 104.636-72.564 113.215-136.118l0.095-0.861c0.555-2.025 1.237-3.775 2.076-5.433l-0.075 0.164z" />
<glyph unicode="&#xe908;" horiz-adv-x="1214" d="M621.216-63.872q-117.392 0-234.797 0c-28.403 0-40.79 12.399-40.802 40.802 0 112.193-0.233 224.387 0.058 336.58-0.028 1.151-0.044 2.507-0.044 3.867 0 81.153 57.005 148.992 133.157 165.66l1.122 0.206c11.019 2.524 23.673 3.97 36.665 3.97 0.395 0 0.79-0.001 1.185-0.004h-0.061c69.007 0.372 138.026 0.57 207.033 0.070 0.679 0.010 1.481 0.015 2.284 0.015 80.897 0 148.534-56.774 165.24-132.651l0.207-1.122c2.661-11.793 4.186-25.338 4.186-39.238 0-0.697-0.004-1.393-0.011-2.088l0.001 0.106q0.477-168.29 0.163-336.58c0-26.845-12.794-39.604-39.639-39.627q-117.974-0.093-235.948 0z" />
<glyph unicode="&#xe909;" horiz-adv-x="1214" d="M621.541 940.879c113.543-0.020 205.579-92.069 205.579-205.614 0-113.558-92.057-205.614-205.614-205.614-0.012 0-0.024 0-0.037 0h0.002c-113.543 0.020-205.579 92.069-205.579 205.614 0 113.558 92.057 205.614 205.614 205.614 0.012 0 0.024 0 0.037 0h-0.002z" />
<glyph unicode="&#xe90a;" horiz-adv-x="1214" d="M279.599-63.872c-37.045 0-75.602-0.372-114.054 0.151-3.754-0.189-8.151-0.296-12.574-0.296-16.662 0-32.967 1.525-48.784 4.444l1.643-0.252c-48.001 11.852-76.765 51.619-76.986 102.353-0.256 59.772-0.14 119.544 0 179.316-0.056 1.634-0.088 3.554-0.088 5.481 0 94.537 76.637 171.175 171.175 171.175 0.37 0 0.74-0.001 1.11-0.004h-0.057c29.543 0.744 59.109 0.116 90.152 0.116-2.433-6.647-4.776-14.889-6.568-23.335l-0.225-1.265c-3.479-18.838-6.040-41.303-7.121-64.155l-0.044-1.165c-0.756-101.028-0.5-202.067-0.209-303.094 0.058-22.622 1.71-45.233 2.687-69.496z" />
<glyph unicode="&#xe90b;" horiz-adv-x="1214" d="M413.601 595.052c-0.185-84.743-68.924-153.369-153.693-153.369-84.882 0-153.693 68.811-153.693 153.693s68.811 153.693 153.693 153.693c0.622 0 1.242-0.004 1.862-0.011l-0.094 0.001c84.005-1.55 151.554-69.829 151.925-153.971v-0.036z" />
<glyph unicode="&#xe90c;" horiz-adv-x="1214" d="M1136.24 595.854c0-0.141 0.001-0.309 0.001-0.476 0-84.882-68.811-153.693-153.693-153.693s-153.693 68.811-153.693 153.693c0 84.739 68.578 153.46 153.263 153.692h0.022c84.734-0.156 153.442-68.553 154.1-153.154v-0.063z" />
<glyph unicode="&#xe90d;" horiz-adv-x="1214" d="M1184.974 45.716c-4.003-21.049-12.868-39.559-25.394-54.974l0.178 0.226c-14.246-18.46-35.502-30.912-59.712-33.352l-0.362-0.030c-55.724-1.861-111.554-0.593-164.673-0.593 0.64 34.172 1.745 69.065 1.861 103.959 0.279 85.581 0 171.151 0.14 256.733 0.101 2.818 0.159 6.129 0.159 9.454 0 29.981-4.699 58.864-13.4 85.954l0.552-1.988c-0.447 2.103-0.72 4.533-0.756 7.021v0.028c49.293-2.931 98.864 7.083 146.11-10.34 60.33-20.346 104.636-72.564 113.215-136.118l0.095-0.861c0.555-2.025 1.237-3.775 2.076-5.433l-0.075 0.164z" />
<glyph unicode="&#xe90e;" horiz-adv-x="1214" d="M592.534-44.751q-117.392 0-234.797 0c-28.403 0-40.79 12.399-40.802 40.802 0 112.193-0.233 224.387 0.058 336.58-0.028 1.151-0.044 2.507-0.044 3.867 0 81.153 57.005 148.992 133.157 165.66l1.122 0.206c11.019 2.524 23.673 3.97 36.665 3.97 0.395 0 0.79-0.001 1.185-0.004h-0.061c69.007 0.372 138.026 0.57 207.033 0.070 0.679 0.010 1.481 0.015 2.284 0.015 80.897 0 148.534-56.774 165.24-132.651l0.207-1.122c2.661-11.793 4.186-25.338 4.186-39.238 0-0.697-0.004-1.393-0.011-2.088l0.001 0.106q0.477-168.29 0.163-336.58c0-26.845-12.794-39.604-39.639-39.627q-117.974-0.093-235.948 0z" />
<glyph unicode="&#xe90f;" horiz-adv-x="1214" d="M592.859 960c113.543-0.020 205.579-92.069 205.579-205.614 0-113.558-92.057-205.614-205.614-205.614-0.012 0-0.024 0-0.037 0h0.002c-113.543 0.020-205.579 92.069-205.579 205.614 0 113.558 92.057 205.614 205.614 205.614 0.012 0 0.024 0 0.037 0h-0.002z" />
<glyph unicode="&#xe910;" horiz-adv-x="1214" d="M250.917-44.751c-37.045 0-75.602-0.372-114.054 0.151-3.754-0.189-8.151-0.296-12.574-0.296-16.662 0-32.967 1.525-48.784 4.444l1.643-0.252c-48.001 11.852-76.765 51.619-76.986 102.353-0.256 59.772-0.14 119.544 0 179.316-0.056 1.634-0.088 3.554-0.088 5.481 0 94.537 76.637 171.175 171.175 171.175 0.37 0 0.74-0.001 1.11-0.004h-0.057c29.543 0.744 59.109 0.116 90.152 0.116-2.433-6.647-4.776-14.889-6.568-23.335l-0.225-1.265c-3.479-18.838-6.040-41.303-7.121-64.155l-0.044-1.165c-0.756-101.028-0.5-202.067-0.209-303.094 0.058-22.622 1.71-45.233 2.687-69.496z" />
<glyph unicode="&#xe911;" horiz-adv-x="1214" d="M384.919 614.173c-0.185-84.743-68.924-153.369-153.693-153.369-84.882 0-153.693 68.811-153.693 153.693s68.811 153.693 153.693 153.693c0.622 0 1.242-0.004 1.862-0.011l-0.094 0.001c84.005-1.55 151.554-69.829 151.925-153.971v-0.036z" />
<glyph unicode="&#xe912;" horiz-adv-x="1214" d="M1107.558 614.976c0-0.141 0.001-0.309 0.001-0.476 0-84.882-68.811-153.693-153.693-153.693s-153.693 68.811-153.693 153.693c0 84.739 68.578 153.46 153.263 153.692h0.022c84.734-0.156 153.442-68.553 154.1-153.154v-0.063z" />
<glyph unicode="&#xe913;" horiz-adv-x="995" d="M118.686-64.010c-6.147 2.653-11.221 5.26-16.106 8.154l0.654-0.359c-13.241 8.801-21.849 23.655-21.849 40.519 0 1.069 0.035 2.13 0.103 3.182l-0.007-0.143q0.149 109.905 0 219.8 0 61.329 0 122.659c0 34.269 19.126 53.335 53.603 53.354q156.539 0.080 313.078 0c18.917 0 23.646-4.779 23.656-23.895q0-201.65-0.239-403.3c-1.012-7.46-2.896-14.212-5.573-20.546l0.197 0.525z" />
<glyph unicode="&#xe914;" horiz-adv-x="995" d="M558.574-64.010c-2.529 5.297-7.248 10.593-7.268 15.93q-0.607 205.095-0.289 410.189c0 15.442 5.297 20.977 20.569 20.997q160.004 0.169 319.988-0.070c0.822 0.051 1.784 0.081 2.752 0.081 25.986 0 47.052-21.066 47.052-47.052 0-1.149-0.041-2.289-0.122-3.418l0.009 0.151q0.229-173.235 0-346.471c0.062-0.903 0.097-1.958 0.097-3.021 0-21.414-14.266-39.496-33.813-45.261l-0.334-0.084c-1.171-0.589-2.18-1.251-3.104-2.014l0.028 0.022z" />
<glyph unicode="&#xe915;" horiz-adv-x="995" d="M263.596 435.953q-90.262 0-180.523 0c-36.569 0.040-54.619 18.249-54.619 55.007q0 65.71 0 131.42c0 35.523 18.309 54.101 53.494 54.101q183.958 0.060 367.906 0c17.513 0 22.013-4.51 22.023-22.013q0-97.569 0-195.208c0-20.758-2.509-23.337-22.899-23.337q-92.711 0-185.431 0z" />
<glyph unicode="&#xe916;" horiz-adv-x="995" d="M758.711 676.541c60.503 0 121.036-0.826 181.519 0.319 1.264 0.113 2.735 0.177 4.22 0.177 27.872 0 50.467-22.595 50.467-50.467 0-1.573-0.072-3.129-0.213-4.665l0.015 0.197c-1.145-44.444-0.249-88.937-0.309-133.411 0-33.502-18.717-52.648-51.991-52.687q-184.466-0.189-368.941 0c-19.514 0-22.501 3.256-22.501 23.078q0 98.107 0 196.214c0 17.353 3.883 21.246 21.286 21.246q93.219 0 186.437 0z" />
<glyph unicode="&#xe917;" horiz-adv-x="995" d="M308.2 711.487c-36.16 1.205-71.803 4.978-104.847 21.356-35.808 16.366-60.241 51.873-60.241 93.086 0 9.951 1.424 19.569 4.080 28.661l-0.181-0.721c7.198 29.988 20.35 55.933 47.988 72.062 17.588 9.725 38.559 15.448 60.867 15.448 6.313 0 12.518-0.458 18.585-1.343l-0.69 0.083c45.109-5.925 85.761-20.917 121.471-43.111l-1.291 0.748c31.036-16.366 57.588-36.509 80.381-60.284l0.104-0.109c5.343-5.787 10.084-12.27 14.038-19.257l0.269-0.516c4.387-7.247 6.983-16.003 6.983-25.365 0-15.498-7.113-29.334-18.253-38.422l-0.089-0.071c-16.244-13.52-35.964-23.445-57.607-28.264l-0.914-0.171c-32.16-8.773-69.085-13.813-107.188-13.813-1.218 0-2.434 0.005-3.65 0.015l0.186-0.001zM402.543 797.796l1.105 4.54c-17.811 11.32-35.195 23.407-53.544 33.791-25.793 16.201-56.651 26.759-89.764 29.212l-0.657 0.039c-11.26 0.438-24.89 2.17-31.332-9.15-12.803-22.421-16.706-47.65 15.004-58.741 21.326-6.817 45.856-10.746 71.304-10.746 11.722 0 23.25 0.834 34.526 2.445l-1.292-0.151c18.339 1.722 36.449 5.784 54.659 8.781z" />
<glyph unicode="&#xe918;" horiz-adv-x="995" d="M728.275 711.049c-59.448 1.165-104.489 5.884-147.559 22.371-6.931 2.69-12.762 5.52-18.329 8.754l0.617-0.331c-40.123 22.899-45.798 60.294-14.596 94.443 23.364 24.304 50.398 44.85 80.258 60.799l1.72 0.839c34.437 21.43 75.119 36.383 118.712 42.071l1.527 0.163c5.328 0.798 11.476 1.253 17.731 1.253 22.356 0 43.353-5.82 61.558-16.027l-0.636 0.327c30.864-18.429 44.653-47.918 49.173-81.918 7.855-59.119-21.127-102.946-80.923-119.871-18.778-4.921-42.271-9.432-66.202-12.549l-3.052-0.325zM620.551 802.535q0.558-2.409 1.125-4.809c17.921-2.987 35.692-6.77 53.693-8.692 10.38-1.499 22.366-2.355 34.552-2.355 21.613 0 42.598 2.692 62.636 7.759l-1.76-0.377c32.238 8.861 39.934 23.247 29.4 54.131-0.319 0.926-0.309 2.21-0.996 2.738-4.947 5.040-10.578 9.383-16.749 12.886l-0.376 0.196c-3.785 1.1-8.133 1.732-12.628 1.732-2.38 0-4.719-0.177-7.004-0.52l0.258 0.032c-32.44-2.638-62.050-12.73-87.763-28.546l0.856 0.49c-18.917-10.623-36.897-23.058-55.286-34.677z" />
<glyph unicode="&#xe919;" horiz-adv-x="995" d="M90.232-45.044c-6.147 2.653-11.221 5.26-16.106 8.154l0.654-0.359c-13.241 8.801-21.849 23.655-21.849 40.519 0 1.069 0.035 2.13 0.103 3.182l-0.007-0.143q0.149 109.905 0 219.8 0 61.329 0 122.659c0 34.269 19.126 53.335 53.603 53.354q156.539 0.080 313.078 0c18.917 0 23.646-4.779 23.656-23.895q0-201.65-0.239-403.3c-1.012-7.46-2.896-14.212-5.573-20.546l0.197 0.525z" />
<glyph unicode="&#xe91a;" horiz-adv-x="995" d="M530.12-45.044c-2.529 5.297-7.248 10.593-7.268 15.93q-0.607 205.095-0.289 410.189c0 15.442 5.297 20.977 20.569 20.997q160.004 0.169 319.988-0.070c0.822 0.051 1.784 0.081 2.752 0.081 25.986 0 47.052-21.066 47.052-47.052 0-1.149-0.041-2.289-0.122-3.418l0.009 0.151q0.229-173.235 0-346.471c0.062-0.903 0.097-1.958 0.097-3.021 0-21.414-14.266-39.496-33.813-45.261l-0.334-0.084c-1.171-0.589-2.18-1.251-3.104-2.014l0.028 0.022z" />
<glyph unicode="&#xe91b;" horiz-adv-x="995" d="M235.142 454.919q-90.262 0-180.523 0c-36.569 0.040-54.619 18.249-54.619 55.007q0 65.71 0 131.42c0 35.523 18.309 54.101 53.494 54.101q183.958 0.060 367.906 0c17.513 0 22.013-4.51 22.023-22.013q0-97.569 0-195.208c0-20.758-2.509-23.337-22.899-23.337q-92.711 0-185.431 0z" />
<glyph unicode="&#xe91c;" horiz-adv-x="995" d="M730.257 695.507c60.503 0 121.036-0.826 181.519 0.319 1.264 0.113 2.735 0.177 4.22 0.177 27.872 0 50.467-22.595 50.467-50.467 0-1.573-0.072-3.129-0.213-4.665l0.015 0.197c-1.145-44.444-0.249-88.937-0.309-133.411 0-33.502-18.717-52.648-51.991-52.687q-184.466-0.189-368.941 0c-19.514 0-22.501 3.256-22.501 23.078q0 98.107 0 196.214c0 17.353 3.883 21.246 21.286 21.246q93.219 0 186.437 0z" />
<glyph unicode="&#xe91d;" horiz-adv-x="995" d="M279.745 730.453c-36.16 1.205-71.803 4.978-104.847 21.356-35.808 16.366-60.241 51.873-60.241 93.086 0 9.951 1.424 19.569 4.080 28.661l-0.181-0.721c7.198 29.988 20.35 55.933 47.988 72.062 17.588 9.725 38.559 15.448 60.867 15.448 6.313 0 12.518-0.458 18.585-1.343l-0.69 0.083c45.109-5.925 85.761-20.917 121.471-43.111l-1.291 0.748c31.036-16.366 57.588-36.509 80.381-60.284l0.104-0.109c5.343-5.787 10.084-12.27 14.038-19.257l0.269-0.516c4.387-7.247 6.983-16.003 6.983-25.365 0-15.498-7.113-29.334-18.253-38.422l-0.089-0.071c-16.244-13.52-35.964-23.445-57.607-28.264l-0.914-0.171c-32.16-8.773-69.085-13.813-107.188-13.813-1.218 0-2.434 0.005-3.65 0.015l0.186-0.001zM374.089 816.762l1.105 4.54c-17.811 11.32-35.195 23.407-53.544 33.791-25.793 16.201-56.651 26.759-89.764 29.212l-0.657 0.039c-11.26 0.438-24.89 2.17-31.332-9.15-12.803-22.421-16.706-47.65 15.004-58.741 21.326-6.817 45.856-10.746 71.304-10.746 11.722 0 23.25 0.834 34.526 2.445l-1.292-0.151c18.339 1.722 36.449 5.784 54.659 8.781z" />
<glyph unicode="&#xe91e;" horiz-adv-x="995" d="M699.821 730.015c-59.448 1.165-104.489 5.884-147.559 22.371-6.931 2.69-12.762 5.52-18.329 8.754l0.617-0.331c-40.123 22.899-45.798 60.294-14.596 94.443 23.364 24.304 50.398 44.85 80.258 60.799l1.72 0.839c34.437 21.43 75.119 36.383 118.712 42.071l1.527 0.163c5.328 0.798 11.476 1.253 17.731 1.253 22.356 0 43.353-5.82 61.558-16.027l-0.636 0.327c30.864-18.429 44.653-47.918 49.173-81.918 7.855-59.119-21.127-102.946-80.923-119.871-18.778-4.921-42.271-9.432-66.202-12.549l-3.052-0.325zM592.096 821.501q0.558-2.409 1.125-4.809c17.921-2.987 35.692-6.77 53.693-8.692 10.38-1.499 22.366-2.355 34.552-2.355 21.613 0 42.598 2.692 62.636 7.759l-1.76-0.377c32.238 8.861 39.934 23.247 29.4 54.131-0.319 0.926-0.309 2.21-0.996 2.738-4.947 5.040-10.578 9.383-16.749 12.886l-0.376 0.196c-3.785 1.1-8.133 1.732-12.628 1.732-2.38 0-4.719-0.177-7.004-0.52l0.258 0.032c-32.44-2.638-62.050-12.73-87.763-28.546l0.856 0.49c-18.917-10.623-36.897-23.058-55.286-34.677z" />
<glyph unicode="&#xe91f;" horiz-adv-x="1040" d="M412.598 38.728l-46.424-46.424c50.593-19.798 109.171-31.272 170.43-31.272 52.738 0 103.49 8.504 150.959 24.216l-3.392-0.972v62.48c-43.835-16.908-94.555-26.703-147.563-26.703-44.258 0-86.92 6.828-126.992 19.488l2.983-0.813z" />
<glyph unicode="&#xe920;" horiz-adv-x="1040" d="M699.834 826.659l30.204 51.29c-56.92 25.711-123.406 40.692-193.39 40.692-53.933 0-105.788-8.897-154.178-25.303l3.381 0.995c9.579-15.682 17.542-33.791 22.952-52.97l0.371-1.539c38.092 12.541 81.935 19.773 127.468 19.773 58.924 0 115.018-12.113 165.929-33.984l-2.737 1.046z" />
<glyph unicode="&#xe921;" horiz-adv-x="1040" d="M82.043 590.5c-15.395-44.978-24.283-96.798-24.283-150.694 0-61.237 11.474-119.794 32.389-173.638l-1.118 3.271 46.424 46.424c-11.834 37.060-18.654 79.689-18.654 123.91 0 45.524 7.228 89.359 20.599 130.422l-0.839-2.977c-20.719 5.774-38.828 13.723-55.483 23.83l0.973-0.549z" />
<glyph unicode="&#xe922;" horiz-adv-x="1040" d="M992.117 292.188c14.739 44.062 23.242 94.796 23.242 147.516 0 42.478-5.521 83.667-15.884 122.889l0.751-3.346h-61.219c10.993-35.771 17.323-76.891 17.323-119.488 0-53.013-9.804-103.735-27.697-150.454l0.97 2.883z" />
<glyph unicode="&#xe923;" horiz-adv-x="1040" d="M570.917 433.983h-68.723c-78.16 0-152.576-59.924-152.576-159.113 0-16.288 13.204-29.491 29.491-29.491h314.827c16.288 0 29.491 13.204 29.491 29.491v0c0.066 98.378-73.679 159.113-152.51 159.113z" />
<glyph unicode="&#xe924;" horiz-adv-x="1040" d="M447.218 588.239v-15.72c0-49.333 39.992-89.326 89.326-89.326s89.326 39.992 89.326 89.326v0 15.72c0 49.333-39.992 89.326-89.326 89.326s-89.326-39.992-89.326-89.326v0z" />
<glyph unicode="&#xe925;" horiz-adv-x="1040" d="M195.42 618.287v0c89.345 0.65 161.522 73.228 161.522 162.665 0 89.431-72.168 162.005-161.443 162.664h-0.063c-89.342-0.654-161.514-73.231-161.514-162.664s72.173-162.010 161.452-162.664h0.062z" />
<glyph unicode="&#xe926;" horiz-adv-x="1040" d="M387.015 138.334l-151.921 151.921c-5.34 5.358-12.728 8.674-20.89 8.674s-15.549-3.316-20.889-8.673l-151.905-151.922c-5.347-5.346-8.654-12.732-8.654-20.89s3.307-15.544 8.654-20.89l151.904-151.912c5.34-5.358 12.728-8.674 20.89-8.674s15.549 3.316 20.889 8.673l151.922 151.913c5.358 5.34 8.674 12.728 8.674 20.89s-3.316 15.549-8.673 20.889l-0.001 0.001z" />
<glyph unicode="&#xe927;" horiz-adv-x="1040" d="M697.336 618.287h313.491c16.301 0.024 29.506 13.244 29.506 29.549 0 5.511-1.509 10.67-4.136 15.086l0.075-0.136-156.762 266.289c-5.232 8.755-14.66 14.527-25.436 14.527s-20.204-5.772-25.362-14.393l-0.075-0.135-156.746-266.289c-2.552-4.28-4.061-9.439-4.061-14.95 0-16.304 13.205-29.524 29.503-29.549h0.002z" />
<glyph unicode="&#xe928;" horiz-adv-x="1040" d="M1010.827 233.148h-238.1c-16.288 0-29.491-13.204-29.491-29.491v0-238.109c0-16.288 13.204-29.491 29.491-29.491v0h238.1c16.288 0 29.491 13.204 29.491 29.491v0 238.076c0 0.010 0 0.021 0 0.033 0 16.288-13.204 29.491-29.491 29.491v0z" />
<glyph unicode="&#xe929;" horiz-adv-x="1040" d="M379.83 55.112l-46.424-46.424c50.593-19.798 109.171-31.272 170.43-31.272 52.738 0 103.49 8.504 150.959 24.216l-3.392-0.972v62.48c-43.835-16.908-94.555-26.703-147.563-26.703-44.258 0-86.92 6.828-126.992 19.488l2.983-0.813z" />
<glyph unicode="&#xe92a;" horiz-adv-x="1040" d="M667.066 843.043l30.204 51.29c-56.92 25.711-123.406 40.692-193.39 40.692-53.933 0-105.788-8.897-154.178-25.303l3.381 0.995c9.579-15.682 17.542-33.791 22.952-52.97l0.371-1.539c38.092 12.541 81.935 19.773 127.468 19.773 58.924 0 115.018-12.113 165.929-33.984l-2.737 1.046z" />
<glyph unicode="&#xe92b;" horiz-adv-x="1040" d="M49.275 606.884c-15.395-44.978-24.283-96.798-24.283-150.694 0-61.237 11.474-119.794 32.389-173.638l-1.118 3.271 46.424 46.424c-11.834 37.060-18.654 79.689-18.654 123.91 0 45.524 7.228 89.359 20.599 130.422l-0.839-2.977c-20.719 5.774-38.828 13.723-55.483 23.83l0.973-0.549z" />
<glyph unicode="&#xe92c;" horiz-adv-x="1040" d="M959.349 308.572c14.739 44.062 23.242 94.796 23.242 147.516 0 42.478-5.521 83.667-15.884 122.889l0.751-3.346h-61.219c10.993-35.771 17.323-76.891 17.323-119.488 0-53.013-9.804-103.735-27.697-150.454l0.97 2.883z" />
<glyph unicode="&#xe92d;" horiz-adv-x="1040" d="M538.149 450.367h-68.723c-78.16 0-152.576-59.924-152.576-159.113 0-16.288 13.204-29.491 29.491-29.491h314.827c16.288 0 29.491 13.204 29.491 29.491v0c0.066 98.378-73.679 159.113-152.51 159.113z" />
<glyph unicode="&#xe92e;" horiz-adv-x="1040" d="M414.45 604.623v-15.72c0-49.333 39.992-89.326 89.326-89.326s89.326 39.992 89.326 89.326v0 15.72c0 49.333-39.992 89.326-89.326 89.326s-89.326-39.992-89.326-89.326v0z" />
<glyph unicode="&#xe92f;" horiz-adv-x="1040" d="M162.652 634.671v0c89.345 0.65 161.522 73.228 161.522 162.665 0 89.431-72.168 162.005-161.443 162.664h-0.063c-89.342-0.654-161.514-73.231-161.514-162.664s72.173-162.010 161.452-162.664h0.062z" />
<glyph unicode="&#xe930;" horiz-adv-x="1040" d="M354.247 154.718l-151.921 151.921c-5.34 5.358-12.728 8.674-20.89 8.674s-15.549-3.316-20.889-8.673l-151.905-151.922c-5.347-5.346-8.654-12.732-8.654-20.89s3.307-15.544 8.654-20.89l151.904-151.912c5.34-5.358 12.728-8.674 20.89-8.674s15.549 3.316 20.889 8.673l151.922 151.913c5.358 5.34 8.674 12.728 8.674 20.89s-3.316 15.549-8.673 20.889l-0.001 0.001z" />
<glyph unicode="&#xe931;" horiz-adv-x="1040" d="M664.568 634.671h313.491c16.301 0.024 29.506 13.244 29.506 29.549 0 5.511-1.509 10.67-4.136 15.086l0.075-0.136-156.762 266.289c-5.232 8.755-14.66 14.527-25.436 14.527s-20.204-5.772-25.362-14.393l-0.075-0.135-156.746-266.289c-2.552-4.28-4.061-9.439-4.061-14.95 0-16.304 13.205-29.524 29.503-29.549h0.002z" />
<glyph unicode="&#xe932;" horiz-adv-x="1040" d="M978.059 249.532h-238.1c-16.288 0-29.491-13.204-29.491-29.491v0-238.109c0-16.288 13.204-29.491 29.491-29.491v0h238.1c16.288 0 29.491 13.204 29.491 29.491v0 238.076c0 0.010 0 0.021 0 0.033 0 16.288-13.204 29.491-29.491 29.491v0z" />
<glyph unicode="&#xe933;" horiz-adv-x="1041" d="M769.549 467.566c-13.516 107.069-97.579 190.952-203.575 204.076l-1.141 0.115c-8.334 1.006-17.986 1.58-27.772 1.583h-0.003c-128.959-0.202-233.422-104.79-233.422-233.776 0-64.859 26.413-123.549 69.069-165.9l0.014-0.014c34.503-33.082 56.133-79.356 56.759-130.685l0.001-0.116v-27.013h215.802v27.166c0.194 50.472 21.124 96.018 54.709 128.591l0.046 0.044c43.941 42.439 71.225 101.881 71.225 167.694 0 9.937-0.622 19.73-1.829 29.34l0.117-1.145z" />
<glyph unicode="&#xe934;" horiz-adv-x="1041" d="M537.388-64c23.342 0.027 43.216 14.849 50.751 35.591l0.119 0.376h-101.74c7.652-21.12 27.527-35.943 50.867-35.967h0.003z" />
<glyph unicode="&#xe935;" horiz-adv-x="1041" d="M447.471 25.917c0.014-9.926 8.057-17.969 17.982-17.983h143.869c9.926 0.014 17.969 8.057 17.983 17.982v53.951h-179.835z" />
<glyph unicode="&#xe936;" horiz-adv-x="1041" d="M537.388 781.223c19.864 0 35.967 16.103 35.967 35.967v0 89.917c0 19.864-16.103 35.967-35.967 35.967s-35.967-16.103-35.967-35.967v0-89.917c0-19.864 16.103-35.967 35.967-35.967v0z" />
<glyph unicode="&#xe937;" horiz-adv-x="1041" d="M233.844 692.211c6.598-6.312 15.563-10.197 25.435-10.197s18.837 3.885 25.449 10.21l-0.014-0.013c6.51 6.509 10.537 15.502 10.537 25.435s-4.027 18.926-10.537 25.435l-63.59 63.573c-6.537 6.686-15.648 10.832-25.727 10.832-19.864 0-35.967-16.103-35.967-35.967 0-10.079 4.146-19.19 10.826-25.72l0.007-0.007z" />
<glyph unicode="&#xe938;" horiz-adv-x="1041" d="M195.702 439.537c0 19.864-16.103 35.967-35.967 35.967v0h-89.917c-19.864 0-35.967-16.103-35.967-35.967s16.103-35.967 35.967-35.967v0h89.917c19.864 0 35.967 16.103 35.967 35.967v0z" />
<glyph unicode="&#xe939;" horiz-adv-x="1041" d="M268.618 196.223c-2.786 0.775-5.985 1.22-9.288 1.22-9.959 0-18.972-4.047-25.485-10.587l-63.574-63.582c-6.51-6.508-10.536-15.499-10.536-25.431s4.027-18.923 10.536-25.431v0c6.597-6.311 15.56-10.196 25.431-10.196s18.834 3.885 25.444 10.209l-0.014-0.013 63.581 63.573c6.54 6.515 10.587 15.529 10.587 25.488 0 16.558-11.186 30.503-26.414 34.691l-0.253 0.059z" />
<glyph unicode="&#xe93a;" horiz-adv-x="1041" d="M840.932 186.863c-6.509 6.509-15.502 10.536-25.435 10.536-19.866 0-35.97-16.105-35.97-35.97 0-9.933 4.026-18.926 10.536-25.435l63.581-63.573c6.597-6.311 15.56-10.196 25.431-10.196s18.834 3.885 25.444 10.209l-0.014-0.013c6.51 6.508 10.536 15.499 10.536 25.431s-4.027 18.923-10.536 25.431v0z" />
<glyph unicode="&#xe93b;" horiz-adv-x="1041" d="M1004.959 475.504h-89.917c-19.864 0-35.967-16.103-35.967-35.967s16.103-35.967 35.967-35.967v0h89.917c19.864 0 35.967 16.103 35.967 35.967s-16.103 35.967-35.967 35.967v0z" />
<glyph unicode="&#xe93c;" horiz-adv-x="1041" d="M840.924 692.211l63.573 63.581c6.333 6.478 10.24 15.35 10.24 25.135 0 19.864-16.103 35.967-35.967 35.967-9.785 0-18.657-3.907-25.141-10.247l-63.574-63.566c-6.51-6.509-10.537-15.502-10.537-25.435s4.027-18.926 10.537-25.435v0c6.598-6.312 15.563-10.197 25.435-10.197s18.837 3.885 25.449 10.21l-0.014-0.013z" />
<glyph unicode="&#xe93d;" horiz-adv-x="1041" d="M735.697 484.492c-13.516 107.069-97.579 190.952-203.575 204.076l-1.141 0.115c-8.334 1.006-17.986 1.58-27.772 1.583h-0.003c-128.959-0.202-233.422-104.79-233.422-233.776 0-64.859 26.413-123.549 69.069-165.9l0.014-0.014c34.503-33.082 56.133-79.356 56.759-130.685l0.001-0.116v-27.013h215.802v27.166c0.194 50.472 21.124 96.018 54.709 128.591l0.046 0.044c43.941 42.439 71.225 101.881 71.225 167.694 0 9.937-0.622 19.73-1.829 29.34l0.117-1.145z" />
<glyph unicode="&#xe93e;" horiz-adv-x="1041" d="M503.537-47.074c23.342 0.027 43.216 14.849 50.751 35.591l0.119 0.376h-101.74c7.652-21.12 27.527-35.943 50.867-35.967h0.003z" />
<glyph unicode="&#xe93f;" horiz-adv-x="1041" d="M413.62 42.843c0.014-9.926 8.057-17.969 17.982-17.983h143.869c9.926 0.014 17.969 8.057 17.983 17.982v53.951h-179.835z" />
<glyph unicode="&#xe940;" horiz-adv-x="1041" d="M503.537 798.149c19.864 0 35.967 16.103 35.967 35.967v0 89.917c0 19.864-16.103 35.967-35.967 35.967s-35.967-16.103-35.967-35.967v0-89.917c0-19.864 16.103-35.967 35.967-35.967v0z" />
<glyph unicode="&#xe941;" horiz-adv-x="1041" d="M199.993 709.137c6.598-6.312 15.563-10.197 25.435-10.197s18.837 3.885 25.449 10.21l-0.014-0.013c6.51 6.509 10.537 15.502 10.537 25.435s-4.027 18.926-10.537 25.435l-63.59 63.573c-6.537 6.686-15.648 10.832-25.727 10.832-19.864 0-35.967-16.103-35.967-35.967 0-10.079 4.146-19.19 10.826-25.72l0.007-0.007z" />
<glyph unicode="&#xe942;" horiz-adv-x="1041" d="M161.851 456.463c0 19.864-16.103 35.967-35.967 35.967v0h-89.917c-19.864 0-35.967-16.103-35.967-35.967s16.103-35.967 35.967-35.967v0h89.917c19.864 0 35.967 16.103 35.967 35.967v0z" />
<glyph unicode="&#xe943;" horiz-adv-x="1041" d="M234.767 213.149c-2.786 0.775-5.985 1.22-9.288 1.22-9.959 0-18.972-4.047-25.485-10.587l-63.574-63.582c-6.51-6.508-10.536-15.499-10.536-25.431s4.027-18.923 10.536-25.431v0c6.597-6.311 15.56-10.196 25.431-10.196s18.834 3.885 25.444 10.209l-0.014-0.013 63.581 63.573c6.54 6.515 10.587 15.529 10.587 25.488 0 16.558-11.186 30.503-26.414 34.691l-0.253 0.059z" />
<glyph unicode="&#xe944;" horiz-adv-x="1041" d="M807.081 203.789c-6.509 6.509-15.502 10.536-25.435 10.536-19.866 0-35.97-16.105-35.97-35.97 0-9.933 4.026-18.926 10.536-25.435l63.581-63.573c6.597-6.311 15.56-10.196 25.431-10.196s18.834 3.885 25.444 10.209l-0.014-0.013c6.51 6.508 10.536 15.499 10.536 25.431s-4.027 18.923-10.536 25.431v0z" />
<glyph unicode="&#xe945;" horiz-adv-x="1041" d="M971.107 492.43h-89.917c-19.864 0-35.967-16.103-35.967-35.967s16.103-35.967 35.967-35.967v0h89.917c19.864 0 35.967 16.103 35.967 35.967s-16.103 35.967-35.967 35.967v0z" />
<glyph unicode="&#xe946;" horiz-adv-x="1041" d="M807.073 709.137l63.573 63.581c6.333 6.478 10.24 15.35 10.24 25.135 0 19.864-16.103 35.967-35.967 35.967-9.785 0-18.657-3.907-25.141-10.247l-63.574-63.566c-6.51-6.509-10.537-15.502-10.537-25.435s4.027-18.926 10.537-25.435v0c6.598-6.312 15.563-10.197 25.435-10.197s18.837 3.885 25.449 10.21l-0.014-0.013z" />
<glyph unicode="&#xe947;" horiz-adv-x="612" d="M611.556 668.444l-583.111-248.889v497.778z" />
<glyph unicode="&#xe948;" horiz-adv-x="612" d="M35.556 938.667c7.855 0 14.222-6.368 14.222-14.222v-974.222c0-7.855-6.368-14.222-14.222-14.222s-14.222 6.368-14.222 14.222v974.222c0 7.855 6.368 14.222 14.222 14.222z" />
<glyph unicode="&#xe949;" horiz-adv-x="612" d="M590.222 689.778l-583.111-248.889v497.778z" />
<glyph unicode="&#xe94a;" horiz-adv-x="612" d="M14.222 960c7.855 0 14.222-6.368 14.222-14.222v-974.222c0-7.855-6.368-14.222-14.222-14.222s-14.222 6.368-14.222 14.222v974.222c0 7.855 6.368 14.222 14.222 14.222z" />
<glyph unicode="&#xe94b;" horiz-adv-x="1926" d="M1765.707 160.212c-26.118 82.009-28.077 168.299-44.934 251.862-8.757 43.325-30.157 82.557-75.474 97.586-9.963 3.515-21.451 5.546-33.413 5.546-34.061 0-64.276-16.466-83.12-41.872l-0.197-0.279c113.097 4.904 137.113-19.703 139.017-134.639 0.744-44.88-7.465-88.73-8.691-133.216-11.456-34.439-23.435-63.119-37.215-90.745l1.804 3.996c-27.727-48.744-62.547-91.259-122.664-102.731-139.773-26.687-279.425 47.397-347.587 180.712-57.074 111.652-49.838 231.765-45.383 351.648 11.011 44.673 25.671 83.711 44.249 120.43l-1.471-3.207c106.091 225.854 334.66 232.542 499.707 142.225 60.861-33.299 97.652-91.062 140.725-147.194 3.087 80.148-69.509 161.249-141.732 203.513-87.318 51.097-181.916 65.404-284.132 52.958-203.119-24.739-361.401-182.802-406.828-370.345-6.003-24.575-11.663-55.901-15.675-87.741l-0.46-4.47c-19.386-260.981 179.519-474.334 450.701-493.282 98.341-6.863 192.348 8.166 287.164 25.373 75.298 11.818 140.714 27.064 204.293 46.517l-10.38-2.732c-55.29 33.933-85.578 79.043-108.368 130.118z" />
<glyph unicode="&#xe94c;" horiz-adv-x="1926" d="M1758.439 439.363c0.766-17.667 2.189-34.36 24.881-34.13 30.945 0.306 64.408 7.389 75.277 37.403 15.875 43.55 38.731 81.003 67.564 112.959l-0.267-0.3c-13.157 5.234-28.404 8.268-44.359 8.268-67.999 0-123.123-55.124-123.123-123.123 0-0.379 0.002-0.757 0.005-1.135v0.058z" />
<glyph unicode="&#xe94d;" horiz-adv-x="1926" d="M1595.821 663.455c13.854-26.944 27.206-59.108 38.054-92.402l1.353-4.8c9.972-31.843 38.892-47.583 66.477-62.503 2.796-1.881 6.24-3.002 9.946-3.002 7.36 0 13.687 4.424 16.466 10.757l0.045 0.115c11.067 19.835 0.263 99.808-16.419 120.004-23.151 28.001-80.422 43.686-115.943 31.843z" />
<glyph unicode="&#xe94e;" horiz-adv-x="1926" d="M1595.394 663.346c0.131 0 0.285 0.077 0.427 0.12l-0.109 0.219z" />
<glyph unicode="&#xe94f;" horiz-adv-x="1926" d="M244.036 339.326c-61.627 56.472-88.544 89.453-174.155 41.158-11.286-6.371-22.276-15.708-37.042-13.333v-35.915c63.97-34.722 131.902-24.432 199.539-17.514 7.049 0.722 15.741-1.839 19.605 6.666s-2.824 14.23-7.947 18.981z" />
<glyph unicode="&#xe950;" horiz-adv-x="1926" d="M862.795 379.017c-34.421 29.227-72.88 55.834-113.843 78.462l-3.61 1.829c-91.336 53.637-189.48 96.327-270.471 166.613-55.366 48.032-65.491 79.787-45.438 135.088 82.94 125.116 213.288 129.253 309.571 82.48 67.232-32.653 101.406-113.732 66.772-165.595-4.247-6.371-19.331-8.286-10.279-19.846 5.855-7.696 15.019-12.614 25.332-12.614 0.739 0 1.471 0.025 2.197 0.075l-0.098-0.005c28.23 1.543 64.703 37.009 62.098 65.678-4.324 47.693-15.248 93.525-45.525 133.314-93.47 122.85-242.963 122.073-361.15 75.825-31.744-12.402-45.317-19.298-88.095-59.318-56.548-51.973-77.784-120.069-75.923-193.749 2.419-95.703 63.893-167.85 148.76-173.389 102.895-6.71 189.753-52.761 273.065-104.482 97.695-60.664 92.813-226.128-6.404-285.456-97.422-58.289-199.298-56.417-299.468-5.32-62.871 31.77-110.665 85.703-133.702 151.291l-0.575 1.88c-25.319-169.24 74.719-263.717 218.597-303.846 108.029-30.135 212.456-0.219 308.991 56.986 127.743 75.682 150.172 274.116 39.188 374.099z" />
<glyph unicode="&#xe951;" horiz-adv-x="1926" d="M304.809 327.361c7.29 34.612 49.937 51.776 45.263 91.368-2.091 10.158 2.846 18.423-1.719 30.069-6.699 17.098-10.377 33.999-30.89 37.163-21.893 3.371-28.635-15.259-38.126-29.478-28.46-42.789-7.279-81.856 9.118-121.12 2.824-6.765 15.073-14.066 16.354-8.002z" />
<glyph unicode="&#xe952;" horiz-adv-x="1926" d="M1595.745 663.685l-13.639 7.794q2.397 2.55 4.784 5.112 4.258-6.633 8.527-13.245l0.328 0.339z" />
<glyph unicode="&#xe953;" horiz-adv-x="1926" d="M1732.868 171.158c-26.118 82.009-28.077 168.299-44.934 251.862-8.757 43.325-30.157 82.557-75.474 97.586-9.963 3.515-21.451 5.546-33.413 5.546-34.061 0-64.276-16.466-83.12-41.872l-0.197-0.279c113.097 4.904 137.113-19.703 139.017-134.639 0.744-44.88-7.465-88.73-8.691-133.216-11.456-34.439-23.435-63.119-37.215-90.745l1.804 3.996c-27.727-48.744-62.547-91.259-122.664-102.731-139.773-26.687-279.425 47.397-347.587 180.712-57.074 111.652-49.838 231.765-45.383 351.648 11.011 44.673 25.671 83.711 44.249 120.43l-1.471-3.207c106.091 225.854 334.66 232.542 499.707 142.225 60.861-33.299 97.652-91.062 140.725-147.194 3.087 80.148-69.509 161.249-141.732 203.513-87.318 51.097-181.916 65.404-284.132 52.958-203.119-24.739-361.401-182.802-406.828-370.345-6.003-24.575-11.663-55.901-15.675-87.741l-0.46-4.47c-19.386-260.981 179.519-474.334 450.701-493.282 98.341-6.863 192.348 8.166 287.164 25.373 75.298 11.818 140.714 27.064 204.293 46.517l-10.38-2.732c-55.29 33.933-85.578 79.043-108.368 130.118z" />
<glyph unicode="&#xe954;" horiz-adv-x="1926" d="M1725.6 450.31c0.766-17.667 2.189-34.36 24.881-34.13 30.945 0.306 64.408 7.389 75.277 37.403 15.875 43.55 38.731 81.003 67.564 112.959l-0.267-0.3c-13.157 5.234-28.404 8.268-44.359 8.268-67.999 0-123.123-55.124-123.123-123.123 0-0.379 0.002-0.757 0.005-1.135v0.058z" />
<glyph unicode="&#xe955;" horiz-adv-x="1926" d="M1562.983 674.401c13.854-26.944 27.206-59.108 38.054-92.402l1.353-4.8c9.972-31.843 38.892-47.583 66.477-62.503 2.796-1.881 6.24-3.002 9.946-3.002 7.36 0 13.687 4.424 16.466 10.757l0.045 0.115c11.067 19.835 0.263 99.808-16.419 120.004-23.151 28.001-80.422 43.686-115.943 31.843z" />
<glyph unicode="&#xe956;" horiz-adv-x="1926" d="M1562.556 674.292c0.131 0 0.285 0.077 0.427 0.12l-0.109 0.219z" />
<glyph unicode="&#xe957;" horiz-adv-x="1926" d="M211.197 350.272c-61.627 56.472-88.544 89.453-174.155 41.158-11.286-6.371-22.276-15.708-37.042-13.333v-35.915c63.97-34.722 131.902-24.432 199.539-17.514 7.049 0.722 15.741-1.839 19.605 6.666s-2.824 14.23-7.947 18.981z" />
<glyph unicode="&#xe958;" horiz-adv-x="1926" d="M829.956 389.963c-34.421 29.227-72.88 55.834-113.843 78.462l-3.61 1.829c-91.336 53.637-189.48 96.327-270.471 166.613-55.366 48.032-65.491 79.787-45.438 135.088 82.94 125.116 213.288 129.253 309.571 82.48 67.232-32.653 101.406-113.732 66.772-165.595-4.247-6.371-19.331-8.286-10.279-19.846 5.855-7.696 15.019-12.614 25.332-12.614 0.739 0 1.471 0.025 2.197 0.075l-0.098-0.005c28.23 1.543 64.703 37.009 62.098 65.678-4.324 47.693-15.248 93.525-45.525 133.314-93.47 122.85-242.963 122.073-361.15 75.825-31.744-12.402-45.317-19.298-88.095-59.318-56.548-51.973-77.784-120.069-75.923-193.749 2.419-95.703 63.893-167.85 148.76-173.389 102.895-6.71 189.753-52.761 273.065-104.482 97.695-60.664 92.813-226.128-6.404-285.456-97.422-58.289-199.298-56.417-299.468-5.32-62.871 31.77-110.665 85.703-133.702 151.291l-0.575 1.88c-25.319-169.24 74.719-263.717 218.597-303.846 108.029-30.135 212.456-0.219 308.991 56.986 127.743 75.682 150.172 274.116 39.188 374.099z" />
<glyph unicode="&#xe959;" horiz-adv-x="1926" d="M271.971 338.308c7.29 34.612 49.937 51.776 45.263 91.368-2.091 10.158 2.846 18.423-1.719 30.069-6.699 17.098-10.377 33.999-30.89 37.163-21.893 3.371-28.635-15.259-38.126-29.478-28.46-42.789-7.279-81.856 9.118-121.12 2.824-6.765 15.073-14.066 16.354-8.002z" />
<glyph unicode="&#xe95a;" horiz-adv-x="1926" d="M1562.906 674.631l-13.639 7.794q2.397 2.55 4.784 5.112 4.258-6.633 8.527-13.245l0.328 0.339z" />
<glyph unicode="&#xe95b;" horiz-adv-x="745" d="M455.754 197.476h-187.929c-17.115-0.442-30.873-14.204-31.308-31.279l-0.001-0.041v-187.852c0.43-17.118 14.192-30.884 31.268-31.319l0.041-0.001h187.852c17.117 0.441 30.878 14.203 31.319 31.278l0.001 0.041v187.852c-0.453 17.112-14.207 30.867-31.277 31.319l-0.043 0.001z" />
<glyph unicode="&#xe95c;" horiz-adv-x="745" d="M267.826-64.011c-23.086 0.454-41.698 18.978-42.293 41.986l-0.001 0.056v188.115c0.442 23.089 18.966 41.709 41.975 42.304l0.056 0.001h188.192v-7.997l0.198 7.997c22.968-0.59 41.434-19.053 42.029-41.963l0.001-0.056v-188.126c-0.47-23.080-18.976-41.685-41.971-42.315l-0.059-0.001zM267.826 186.458c-11.16-0.394-20.088-9.414-20.334-20.574v-187.578c0.394-11.162 9.412-20.093 20.574-20.345h187.612c11.158 0.417 20.077 9.436 20.334 20.595v187.59c-0.408 11.116-9.358 20.012-20.458 20.333l-0.030 0.001z" />
<glyph unicode="&#xe95d;" horiz-adv-x="745" d="M702.378 759.944c-21.391 39.398-49.193 72.571-82.375 99.341l-0.62 0.484c-32.753 26.277-70.525 48.2-111.35 63.993l-2.899 0.986c-37.359 15.1-80.67 23.984-126.021 24.266l-0.114 0.001q-237.945 0-363.213-208.252c-3.005-4.682-4.79-10.395-4.79-16.525 0-1.925 0.176-3.808 0.513-5.635l-0.029 0.19c1.405-8.089 5.833-14.949 12.053-19.505l0.086-0.060 128.398-97.87c5.515-3.713 12.255-6.014 19.516-6.249l0.060-0.002c9.953 0.115 18.744 4.989 24.218 12.449l0.060 0.085q56.355 70.45 83.764 90.081c22.37 14.307 49.653 22.805 78.92 22.805 1.993 0 3.977-0.039 5.951-0.117l-0.284 0.009c0.806 0.016 1.757 0.025 2.71 0.025 30.412 0 58.635-9.37 81.941-25.38l-0.491 0.319q36.395-25.058 36.395-57.937c0.061-1.223 0.096-2.656 0.096-4.097 0-21.075-7.418-40.417-19.786-55.558l0.125 0.158c-18.213-18.52-40.098-33.366-64.483-43.365l-1.287-0.467c-44.223-20.832-81.529-49.481-111.629-84.502l-0.368-0.438c-30.635-31.815-49.835-74.829-50.881-122.318l-0.004-0.203v-35.23c0.12-10.85 3.158-20.966 8.365-29.63l-0.148 0.266c3.389-8.075 10.93-13.789 19.879-14.496l0.082-0.005h187.863c9.151 0.248 17.148 4.972 21.909 12.052l0.062 0.098c5.704 6.855 9.223 15.706 9.392 25.373l0.001 0.036q0 19.554 21.521 52.456c13.641 21.132 31.685 38.29 52.93 50.511l0.745 0.395q30.518 17.225 47.743 27.782c16.948 11.082 31.645 22.288 45.489 34.441l-0.449-0.386c16.452 13.468 30.655 28.795 42.558 45.847l0.483 0.731c24.799 39.5 39.52 87.511 39.548 138.959v0.007c-0.021 45.567-11.923 88.349-32.776 125.423l0.665-1.287z" />
<glyph unicode="&#xe95e;" horiz-adv-x="745" d="M264.75 236.574c-13.296 0.733-24.529 8.867-29.705 20.325l-0.088 0.218c-5.769 9.811-9.231 21.586-9.37 34.158v35.38c1.007 50.657 21.385 96.367 54.005 130.192l-0.056-0.058c31.327 36.499 69.738 65.953 113.216 86.417l2.065 0.874c24.431 9.871 45.257 23.959 62.537 41.543l0.026 0.026c10.288 12.905 16.508 29.449 16.508 47.447 0 1.348-0.035 2.689-0.104 4.020l0.008-0.186c0 18.752-10.348 34.747-31.638 49.435-20.94 14.463-46.869 23.102-74.814 23.102-1.026 0-2.050-0.012-3.071-0.035l0.152 0.003c-1.767 0.082-3.839 0.128-5.922 0.128-27.080 0-52.321-7.875-73.557-21.461l0.548 0.328c-16.819-12.084-44.271-41.679-81.051-87.653-7.53-10.044-19.358-16.512-32.703-16.654h-0.023c-9.631 0.229-18.521 3.22-25.958 8.207l0.176-0.111-128.969 98.265c-8.499 6.255-14.455 15.539-16.279 26.232l-0.034 0.243c-0.409 2.193-0.642 4.716-0.642 7.294 0 8.299 2.422 16.033 6.597 22.532l-0.1-0.166c85.115 141.526 210.482 213.382 372.495 213.382 46.89-0.255 91.568-9.421 132.526-25.886l-2.425 0.861c44.805-17.194 83.512-39.67 117.925-67.277l-0.853 0.661c34.986-28.125 63.737-62.412 84.935-101.401l0.872-1.753c20.994-37.277 33.399-81.818 33.495-129.249v-0.028c-0.018-53.598-15.35-103.612-41.858-145.907l0.673 1.152c-13.064-18.836-28.064-35.065-45.031-48.983l-0.416-0.331c-13.676-11.988-28.684-23.421-44.453-33.794l-1.544-0.954c-11.711-7.195-27.881-16.599-48.336-28.145-20.38-11.728-37.109-27.645-49.436-46.679l-0.339-0.559c-16.368-25.003-19.774-39.108-19.774-46.545-0.194-12.202-4.537-23.353-11.677-32.141l0.076 0.097c-6.811-9.787-17.873-16.206-30.452-16.565l-0.054-0.001zM367.574 731.425c32.497-0.052 62.632-10.126 87.489-27.296l-0.517 0.337c27.387-18.84 41.217-41.382 41.207-67.011 0.061-1.291 0.095-2.804 0.095-4.325 0-23.626-8.326-45.306-22.205-62.268l0.139 0.175c-19.394-19.98-42.785-35.962-68.896-46.669l-1.356-0.492c-42.564-20.059-78.457-47.682-107.374-81.455l-0.36-0.431c-29.049-29.958-47.264-70.566-48.245-115.422l-0.003-0.189v-34.956c0.115-8.783 2.583-16.966 6.799-23.977l-0.12 0.216 0.714-1.428c1.805-4.295 5.825-7.33 10.592-7.687l0.042-0.002h187.017c5.353 0.236 10.006 3.030 12.794 7.181l0.037 0.058 0.67 0.912c4.163 5.032 6.736 11.513 6.876 18.59v0.030c0 15.182 7.635 34.319 23.311 58.278 14.616 22.572 33.901 40.915 56.591 54.019l0.797 0.425c20.235 11.414 36.186 20.697 47.413 27.585 16.391 10.747 30.603 21.59 44.002 33.338l-0.444-0.382c15.762 12.884 29.37 27.546 40.778 43.86l0.462 0.697c23.617 37.744 37.624 83.599 37.625 132.726v0.001c-0.078 43.599-11.472 84.519-31.399 120.003l0.64-1.239-0.066 0.132c-20.63 38.086-47.5 70.142-79.591 95.972l-0.603 0.469c-31.906 25.592-68.702 46.942-108.471 62.317l-2.822 0.96c-36.21 14.676-78.196 23.301-122.167 23.552h-0.102c-153.72 0-272.714-68.275-353.721-202.935-2.017-3.072-3.217-6.837-3.217-10.883 0-1.232 0.111-2.438 0.324-3.609l-0.018 0.122c0.878-5.213 3.72-9.639 7.723-12.573l0.055-0.038 128.607-98.012c3.764-2.406 8.326-3.886 13.224-4.020l0.036-0.001c6.188 0.22 11.612 3.306 15.012 7.964l0.038 0.055c38.878 48.611 67.011 78.755 86.247 92.553 24.217 15.593 53.789 24.859 85.526 24.859 2.069 0 4.13-0.039 6.18-0.117l-0.295 0.009h2.933z" />
<glyph unicode="&#xe95f;" glyph-name="pdf-file" horiz-adv-x="988" d="M897.999 669.991h-807.999c-49.685-0.053-89.948-40.316-90.001-89.996v-360.007c0.053-49.685 40.316-89.948 89.996-90.001h808.004c49.685 0.053 89.948 40.316 90.001 89.996v360.007c-0.053 49.685-40.316 89.948-89.996 90.001h-0.005zM237.49 353.306h-33.036v-69.253c0.010-0.287 0.015-0.624 0.015-0.962 0-16.574-13.436-30.010-30.010-30.010s-30.010 13.436-30.010 30.010c0 0.338 0.006 0.676 0.017 1.011l-0.001-0.049-0.432 227.888c0 0.028 0 0.060 0 0.093 0 16.574 13.436 30.010 30.010 30.010 0 0 0 0 0 0h63.479c0.508 0.010 1.107 0.015 1.707 0.015 52.11 0 94.354-42.244 94.354-94.354s-42.244-94.354-94.354-94.354c-0.6 0-1.199 0.006-1.796 0.017l0.090-0.001zM495.019 261.237c-17.877-0.309-62.553-0.494-64.467-0.494v0c0 0 0 0 0 0-16.531 0-29.94 13.366-30.010 29.88v0.007c0 0.803-0.463 221.281-0.463 221.281 0 0.018 0 0.040 0 0.062 0 16.574 13.436 30.010 30.010 30.010 0 0 0 0 0 0h62.645c71.383 0 119.332-56.501 119.332-140.636-0.062-79.997-49.276-138.907-117.047-140.111zM802.441 433.304c0.287 0.010 0.624 0.015 0.962 0.015 16.574 0 30.010-13.436 30.010-30.010s-13.436-30.010-30.010-30.010c-0.338 0-0.676 0.006-1.011 0.017l0.049-0.001h-54.433v-85.308c-0.535-16.155-13.759-29.048-29.995-29.048s-29.46 12.893-29.994 28.999l-0.001 0.049v226.314c0 16.574 13.436 30.010 30.010 30.010v0h91.73c0.287 0.010 0.624 0.015 0.962 0.015 16.574 0 30.010-13.436 30.010-30.010s-13.436-30.010-30.010-30.010c-0.338 0-0.676 0.006-1.011 0.017l0.049-0.001h-61.75v-51.005zM492.672 481.993h-32.604c0-27.077 0.216-135.016 0.309-161.075 12.35 0 25.842 0.185 33.623 0.34 40.137 0.71 58.045 40.755 58.045 80.275-0.031 18.71-4.292 80.46-59.373 80.46zM237.49 481.993h-33.407c0-13.338 0-27.54 0-34.333 0-7.935 0-21.612 0-34.456h33.191c0.435-0.020 0.944-0.031 1.456-0.031 18.979 0 34.364 15.385 34.364 34.364s-15.385 34.364-34.364 34.364c-0.512 0-1.022-0.011-1.528-0.033l0.072 0.003zM866.939 730.012c-7.455 20.104-18.349 37.332-32.109 51.811l0.060-0.064-124.642 131.435c-27.427 28.788-66.028 46.718-108.818 46.806h-399.416c-49.685-0.053-89.948-40.316-90.001-89.996v-139.992zM112.014 69.997v-43.997c0.053-49.685 40.316-89.948 89.996-90.001h584.006c49.685 0.053 89.948 40.316 90.001 89.996v44.002z" />
<glyph unicode="&#xe960;" horiz-adv-x="938" d="M381.416 427.152c-35.055 12.613-59.693 45.525-59.814 84.208v0.015h59.814c0-16.521 13.393-29.913 29.913-29.913s29.913 13.393 29.913 29.913c0 16.521-13.393 29.913-29.913 29.913v0c-0.069 0-0.151 0-0.233 0-49.43 0-89.501 40.071-89.501 89.501 0 38.794 24.681 71.822 59.197 84.241l0.624 0.196v62.299c-101.944-14.707-179.406-101.476-179.406-206.336s77.462-191.629 178.286-206.203l1.12-0.133z" />
<glyph unicode="&#xe961;" horiz-adv-x="938" d="M441.206 777.525v-62.299c35.055-12.613 59.693-45.525 59.814-84.208v-0.015h-59.814c0 16.521-13.393 29.913-29.913 29.913s-29.913-13.393-29.913-29.913c0-16.521 13.393-29.913 29.913-29.913v0c0.069 0 0.151 0 0.233 0 49.43 0 89.501-40.071 89.501-89.501 0-38.794-24.681-71.822-59.197-84.241l-0.624-0.196v-62.299c101.944 14.707 179.406 101.476 179.406 206.336s-77.462 191.629-178.286 206.203l-1.12 0.133z" />
<glyph unicode="&#xe962;" horiz-adv-x="938" d="M800.080 578.359c-3.755 211.822-176.351 382.096-388.718 382.096-214.714 0-388.775-174.060-388.775-388.775 0-110.158 45.815-209.615 119.43-280.356l0.129-0.123v-352.085h418.712v119.688h239.269v243.204h138.092zM411.305 301.995c-148.66 0.007-269.17 120.521-269.17 269.182 0 148.665 120.517 269.182 269.182 269.182 148.648 0 269.155-120.49 269.182-269.132v-0.003c-0.149-148.613-120.573-269.049-269.166-269.218h-0.016z" />
<glyph unicode="&#xe963;" horiz-adv-x="938" d="M358.909 424.037c-35.055 12.613-59.693 45.525-59.814 84.208v0.015h59.814c0-16.521 13.393-29.913 29.913-29.913s29.913 13.393 29.913 29.913c0 16.521-13.393 29.913-29.913 29.913v0c-0.069 0-0.151 0-0.233 0-49.43 0-89.501 40.071-89.501 89.501 0 38.794 24.681 71.822 59.197 84.241l0.624 0.196v62.299c-101.944-14.707-179.406-101.476-179.406-206.336s77.462-191.629 178.286-206.203l1.12-0.133z" />
<glyph unicode="&#xe964;" horiz-adv-x="938" d="M418.7 774.41v-62.299c35.055-12.613 59.693-45.525 59.814-84.208v-0.015h-59.814c0 16.521-13.393 29.913-29.913 29.913s-29.913-13.393-29.913-29.913c0-16.521 13.393-29.913 29.913-29.913v0c0.069 0 0.151 0 0.233 0 49.43 0 89.501-40.071 89.501-89.501 0-38.794-24.681-71.822-59.197-84.241l-0.624-0.196v-62.299c101.944 14.707 179.406 101.476 179.406 206.336s-77.462 191.629-178.286 206.203l-1.12 0.133z" />
<glyph unicode="&#xe965;" horiz-adv-x="938" d="M777.574 575.244c-3.755 211.822-176.351 382.096-388.718 382.096-214.714 0-388.775-174.060-388.775-388.775 0-110.158 45.815-209.615 119.43-280.356l0.129-0.123v-352.085h418.712v119.688h239.269v243.204h138.092zM388.799 298.88c-148.66 0.007-269.17 120.521-269.17 269.182 0 148.665 120.517 269.182 269.182 269.182 148.648 0 269.155-120.49 269.182-269.132v-0.003c-0.149-148.613-120.573-269.049-269.166-269.218h-0.016z" />
<glyph unicode="&#xe966;" horiz-adv-x="966" d="M494.92 379.825v364.049c0.086 64.776 52.588 117.262 117.362 117.321h118.223v17.702c-0.040 32.397-26.292 58.65-58.686 58.69h-575.794c-32.397-0.040-58.65-26.292-58.69-58.686v-884.212c0.040-32.397 26.292-58.65 58.686-58.69h395.398v192.073c0.046 32.003 25.977 57.934 57.976 57.98h181.109v76.415h-118.217c-64.792 0.060-117.302 52.565-117.368 117.35v0.006zM383.914 127.364h-242.273c-16.207 0-29.345 13.138-29.345 29.345s13.138 29.345 29.345 29.345h242.273c16.207 0 29.345-13.138 29.345-29.345s-13.138-29.345-29.345-29.345v0zM383.914 273.088h-242.273c-16.207 0-29.345 13.138-29.345 29.345s13.138 29.345 29.345 29.345h242.273c16.207 0 29.345-13.138 29.345-29.345s-13.138-29.345-29.345-29.345v0zM383.914 418.824h-242.273c-16.207 0-29.345 13.138-29.345 29.345s13.138 29.345 29.345 29.345h242.273c16.207 0 29.345-13.138 29.345-29.345s-13.138-29.345-29.345-29.345v0zM383.914 564.548h-242.273c-16.207 0-29.345 13.138-29.345 29.345s13.138 29.345 29.345 29.345h242.273c16.207 0 29.345-13.138 29.345-29.345s-13.138-29.345-29.345-29.345v0zM383.914 710.272h-242.273c-16.207 0-29.345 13.138-29.345 29.345s13.138 29.345 29.345 29.345h242.273c16.207 0 29.345-13.138 29.345-29.345s-13.138-29.345-29.345-29.345v0z" />
<glyph unicode="&#xe967;" horiz-adv-x="966" d="M550.097-64l180.408 191.364h-180.408z" />
<glyph unicode="&#xe968;" horiz-adv-x="966" d="M907.377 802.505h-295.089c-32.414-0.040-58.676-26.319-58.69-58.735v-364.050c0.040-32.397 26.292-58.65 58.686-58.69h295.104c32.397 0.040 58.65 26.292 58.69 58.686v364.053c-0.040 32.397-26.292 58.65-58.686 58.69h-0.004zM845.895 499.228c-5.704-31.964-27.61-57.738-56.756-68.823l-0.619-0.207c0-47.117-58.69-42.697-58.69-3.489-16.716 2.961-31.548 9.387-44.301 18.528l0.324-0.221c-8.044 5.319-13.278 14.325-13.278 24.553 0 16.204 13.136 29.34 29.34 29.34 5.976 0 11.535-1.787 16.171-4.855l-0.109 0.068c9.231-6.882 20.861-11.019 33.458-11.019 2.969 0 5.885 0.23 8.73 0.673l-0.317-0.041c14.278 0.707 25.884 11.3 28.147 25.042l0.024 0.174c0.336 1.41 0.528 3.028 0.528 4.692 0 9.971-6.917 18.327-16.215 20.53l-0.143 0.029c-26.28 8.19-49.161 19.52-69.806 33.847l0.834-0.548c-15.074 12.645-24.59 31.489-24.59 52.556 0 5.244 0.59 10.351 1.706 15.258l-0.088-0.459c4.915 27.596 24.217 49.726 49.726 58.599l0.532 0.161v10.84c2.96 13.381 14.722 23.242 28.788 23.242 16.265 0 29.45-13.185 29.45-29.45 0-1.239-0.077-2.46-0.225-3.659l0.014 0.143c7.331-2.681 13.357-5.362 19.178-8.383l-0.906 0.428c9.943-4.981 16.649-15.092 16.649-26.769 0-16.483-13.362-29.845-29.845-29.845-4.048 0-7.907 0.806-11.426 2.266l0.198-0.073c-7.722 3.803-16.809 6.027-26.416 6.027-2.376 0-4.72-0.136-7.026-0.401l0.281 0.026c-6.805-2.661-11.538-9.168-11.538-16.779 0-2.75 0.618-5.355 1.722-7.685l-0.047 0.109c15.057-9.75 32.405-17.953 50.828-23.726l1.512-0.408c32.457-10.604 55.492-40.607 55.492-75.991 0-5.055-0.47-10.001-1.369-14.795l0.077 0.495z" />
<glyph unicode="&#xe969;" horiz-adv-x="966" d="M457.585 402.238v364.049c0.086 64.776 52.588 117.262 117.362 117.321h118.223v17.702c-0.040 32.397-26.292 58.65-58.686 58.69h-575.794c-32.397-0.040-58.65-26.292-58.69-58.686v-884.212c0.040-32.397 26.292-58.65 58.686-58.69h395.398v192.073c0.046 32.003 25.977 57.934 57.976 57.98h181.109v76.415h-118.217c-64.792 0.060-117.302 52.565-117.368 117.35v0.006zM346.579 149.777h-242.273c-16.207 0-29.345 13.138-29.345 29.345s13.138 29.345 29.345 29.345h242.273c16.207 0 29.345-13.138 29.345-29.345s-13.138-29.345-29.345-29.345v0zM346.579 295.501h-242.273c-16.207 0-29.345 13.138-29.345 29.345s13.138 29.345 29.345 29.345h242.273c16.207 0 29.345-13.138 29.345-29.345s-13.138-29.345-29.345-29.345v0zM346.579 441.237h-242.273c-16.207 0-29.345 13.138-29.345 29.345s13.138 29.345 29.345 29.345h242.273c16.207 0 29.345-13.138 29.345-29.345s-13.138-29.345-29.345-29.345v0zM346.579 586.961h-242.273c-16.207 0-29.345 13.138-29.345 29.345s13.138 29.345 29.345 29.345h242.273c16.207 0 29.345-13.138 29.345-29.345s-13.138-29.345-29.345-29.345v0zM346.579 732.685h-242.273c-16.207 0-29.345 13.138-29.345 29.345s13.138 29.345 29.345 29.345h242.273c16.207 0 29.345-13.138 29.345-29.345s-13.138-29.345-29.345-29.345v0z" />
<glyph unicode="&#xe96a;" horiz-adv-x="966" d="M512.762-41.587l180.408 191.364h-180.408z" />
<glyph unicode="&#xe96b;" horiz-adv-x="966" d="M870.041 824.918h-295.089c-32.414-0.040-58.676-26.319-58.69-58.735v-364.050c0.040-32.397 26.292-58.65 58.686-58.69h295.104c32.397 0.040 58.65 26.292 58.69 58.686v364.053c-0.040 32.397-26.292 58.65-58.686 58.69h-0.004zM808.56 521.641c-5.704-31.964-27.61-57.738-56.756-68.823l-0.619-0.207c0-47.117-58.69-42.697-58.69-3.489-16.716 2.961-31.548 9.387-44.301 18.528l0.324-0.221c-8.044 5.319-13.278 14.325-13.278 24.553 0 16.204 13.136 29.34 29.34 29.34 5.976 0 11.535-1.787 16.171-4.855l-0.109 0.068c9.231-6.882 20.861-11.019 33.458-11.019 2.969 0 5.885 0.23 8.73 0.673l-0.317-0.041c14.278 0.707 25.884 11.3 28.147 25.042l0.024 0.174c0.336 1.41 0.528 3.028 0.528 4.692 0 9.971-6.917 18.327-16.215 20.53l-0.143 0.029c-26.28 8.19-49.161 19.52-69.806 33.847l0.834-0.548c-15.074 12.645-24.59 31.489-24.59 52.556 0 5.244 0.59 10.351 1.706 15.258l-0.088-0.459c4.915 27.596 24.217 49.726 49.726 58.599l0.532 0.161v10.84c2.96 13.381 14.722 23.242 28.788 23.242 16.265 0 29.45-13.185 29.45-29.45 0-1.239-0.077-2.46-0.225-3.659l0.014 0.143c7.331-2.681 13.357-5.362 19.178-8.383l-0.906 0.428c9.943-4.981 16.649-15.092 16.649-26.769 0-16.483-13.362-29.845-29.845-29.845-4.048 0-7.907 0.806-11.426 2.266l0.198-0.073c-7.722 3.803-16.809 6.027-26.416 6.027-2.376 0-4.72-0.136-7.026-0.401l0.281 0.026c-6.805-2.661-11.538-9.168-11.538-16.779 0-2.75 0.618-5.355 1.722-7.685l-0.047 0.109c15.057-9.75 32.405-17.953 50.828-23.726l1.512-0.408c32.457-10.604 55.492-40.607 55.492-75.991 0-5.055-0.47-10.001-1.369-14.795l0.077 0.495z" />
<glyph unicode="&#xe96c;" horiz-adv-x="909" d="M473.199 643.193c-107.718 0-195.042-87.323-195.042-195.042s87.323-195.042 195.042-195.042c107.718 0 195.042 87.323 195.042 195.042v0c-0.126 107.668-87.374 194.916-195.029 195.042h-0.012zM588.998 484.882l-139.724-139.724c-5.434-5.439-12.943-8.804-21.238-8.804s-15.805 3.365-21.238 8.803v0l-53.398 53.398c-5.226 5.397-8.448 12.763-8.448 20.881 0 16.586 13.446 30.031 30.031 30.031 8.118 0 15.484-3.221 20.889-8.455l32.152-32.152 118.497 118.486c5.397 5.226 12.763 8.448 20.881 8.448 16.586 0 30.031-13.446 30.031-30.031 0-8.118-3.221-15.484-8.455-20.889l0.008 0.008z" />
<glyph unicode="&#xe96d;" horiz-adv-x="909" d="M908.038 682.25v0.791c-0.442 9.828-0.744 20.238-0.919 31.811-1.095 56.829-45.72 102.891-101.854 106.27l-0.301 0.015c-117.73 6.583-208.778 44.954-286.566 120.777l-0.686 0.628c-11.649 10.815-27.308 17.452-44.518 17.452s-32.869-6.636-44.559-17.49l0.041 0.038-0.663-0.628c-77.789-75.823-168.825-114.194-286.52-120.777-56.439-3.388-101.067-49.453-102.154-106.179l-0.002-0.106c-0.163-11.492-0.477-21.901-0.919-31.799v-1.849c-2.326-120.021-5.129-269.376 44.838-404.948 27.739-75.485 69.904-139.848 123.552-192.561l0.075-0.073c62.168-60.668 143.597-108.832 242.019-143.144 2.7-0.984 6.027-1.915 9.437-2.615l0.484-0.083c4.329-0.909 9.303-1.429 14.399-1.429s10.070 0.52 14.873 1.51l-0.474-0.082c3.909 0.791 7.246 1.73 10.482 2.885l-0.525-0.164c98.306 34.381 179.642 82.581 241.752 143.225 53.724 52.805 95.901 117.176 122.515 189.094l1.158 3.574c50.165 135.979 47.315 285.624 45.036 405.855zM473.199 193.047c-140.885 0.007-255.093 114.218-255.093 255.104 0 140.89 114.214 255.104 255.104 255.104s255.104-114.214 255.104-255.104v0c-0.165-140.828-114.287-254.946-255.101-255.104h-0.015z" />
<glyph unicode="&#xe96e;" horiz-adv-x="909" d="M436.003 643.088c-0.003 0-0.008 0-0.012 0-107.757 0-195.111-87.354-195.111-195.111s87.354-195.111 195.111-195.111c107.757 0 195.111 87.354 195.111 195.111 0 0.004 0 0.008 0 0.012v-0.001c-0.132 107.697-87.402 194.967-195.087 195.1h-0.013zM551.836 484.731l-139.771-139.771c-5.435-5.44-12.947-8.805-21.244-8.805s-15.809 3.365-21.244 8.805l-53.41 53.41c-5.437 5.437-8.8 12.948-8.8 21.244 0 16.593 13.451 30.044 30.044 30.044 8.296 0 15.807-3.363 21.244-8.8l32.172-32.172 118.544 118.532c5.437 5.437 12.948 8.8 21.244 8.8 16.593 0 30.044-13.451 30.044-30.044 0-8.296-3.363-15.807-8.8-21.244v0z" />
<glyph unicode="&#xe96f;" horiz-adv-x="909" d="M870.982 682.157v0.791c-0.442 9.84-0.744 20.25-0.919 31.823-1.095 56.848-45.735 102.926-101.889 106.305l-0.301 0.014c-117.765 6.583-208.836 44.966-286.66 120.824l-0.663 0.628c-11.652 10.817-27.316 17.454-44.53 17.454s-32.877-6.637-44.571-17.492l0.041 0.038-0.663-0.628c-77.835-75.858-168.906-114.24-286.648-120.824-56.458-3.388-101.102-49.469-102.189-106.214l-0.002-0.106c-0.174-11.503-0.477-21.901-0.919-31.811v-1.849c-2.338-120.068-5.176-269.469 44.803-405.087 27.763-75.516 69.959-139.902 123.644-192.629l0.076-0.075c62.191-60.691 143.644-108.867 242.101-143.202 2.701-0.984 6.027-1.915 9.438-2.615l0.484-0.083c4.331-0.909 9.307-1.43 14.405-1.43s10.074 0.521 14.879 1.512l-0.474-0.082c3.913 0.79 7.254 1.73 10.493 2.885l-0.525-0.163c98.329 34.393 179.7 82.581 241.833 143.272 53.741 52.829 95.929 117.226 122.55 189.174l1.159 3.576c50.165 136.002 47.338 285.717 45.047 405.994zM435.979 192.779c-140.932 0.013-255.174 114.264-255.174 255.197 0 140.942 114.256 255.197 255.197 255.197s255.197-114.256 255.197-255.197v0c-0.165-140.873-114.324-255.027-255.183-255.186h-0.015z" />
<glyph unicode="&#xe970;" horiz-adv-x="1046" d="M29.694 731.557v0c0 19.765 16.023 35.788 35.788 35.788s35.788-16.023 35.788-35.788v-243.575c0-0.337 0-0.663 0-1l0.146 0.549c-2.233-7.236-3.435-14.924-3.435-22.893 0-21.389 8.661-40.755 22.666-54.781l166.86-166.78c3.033-2.852 7.116-4.6 11.608-4.6 9.359 0 16.946 7.587 16.946 16.946 0 4.495-1.75 8.58-4.597 11.605l-166.854 166.853c-8.083 7.915-13.098 18.95-13.098 31.156 0 24.082 19.522 43.604 43.604 43.604 12.244 0 23.309-5.047 31.239-13.182l204.786-201.762 1.163-312.221v-0.005c-0.053-21.001-17.091-38.010-38.103-38.016h-100.123c-20.994 0.040-38.006 17.048-38.053 38.045l-0.512 148.050v0.002c-0.008 4.669-1.905 8.895-4.966 11.955l-200.901 200.994zM869.134 654.106v-0.034c-0.004 0.226-0.006 0.452-0.006 0.679 0 19.772 16.028 35.8 35.8 35.8s35.8-16.028 35.8-35.8c0-0.227-0.002-0.453-0.006-0.645v-123.218l0.339-0.193c-11.839 7.269-25.77 11.461-40.681 11.461-11.305 0-22.046-2.409-31.246-6.545v118.496zM664.697 293.71l-1.163-312.268v-0.007c0.073-20.988 17.109-37.98 38.114-37.98 0 0 0 0 0 0h100.135c20.971 0.040 37.968 17.016 38.041 37.987l0.5 148.108v0.004c0.018 4.673 1.922 8.902 4.99 11.965l200.878 200.983v389.055c0 19.772-16.028 35.8-35.8 35.8s-35.8-16.028-35.8-35.8v-243.575c0-0.337 0-0.675 0-1l-0.146 0.549c2.231-7.232 3.433-14.917 3.433-22.881 0-21.396-8.67-40.768-22.687-54.792l-166.845-166.787c-3.064-3.048-7.287-4.932-11.951-4.932-9.359 0-16.946 7.587-16.946 16.946 0 4.66 1.881 8.881 4.925 11.944l166.867 166.925c8.126 7.918 13.173 18.982 13.173 31.224 0 24.076-19.517 43.593-43.593 43.593-12.242 0-23.306-5.047-31.234-13.182zM342.869 660.945c62.737-73.135 144.666-138.955 193.609-178.279l1.454-1.163 1.465 1.163c48.943 39.324 130.86 105.144 193.585 178.233 72.88 84.964 99.526 155.855 79.172 210.706l-0.307 0.93c-18.663 49.556-65.63 85.242-121.445 87.36-53.991 2.094-105.539-27.961-138.071-80.405l-0.041-0.070c-2.998-4.77-8.308-7.94-14.358-7.94s-11.359 3.17-14.399 8.011c-31.473 50.723-80.823 80.509-132.825 80.509-1.768 0-3.501-0.023-5.257-0.105l-0.249-0.008c-55.557-2.108-102.521-37.772-121.515-88.236-20.331-54.852 6.292-125.8 79.183-210.706zM135.117 530.888l-0.338-0.193c11.831 7.269 25.755 11.461 40.658 11.461 11.309 0 22.055-2.414 31.256-6.557v118.508c0 19.765-16.023 35.788-35.788 35.788s-35.788-16.023-35.788-35.788v-123.23z" />
<glyph unicode="&#xe971;" horiz-adv-x="1046" d="M0.047 724.136v0c0 19.765 16.023 35.788 35.788 35.788s35.788-16.023 35.788-35.788v-243.575c0-0.337 0-0.663 0-1l0.146 0.549c-2.233-7.236-3.435-14.924-3.435-22.893 0-21.389 8.661-40.755 22.666-54.781l166.86-166.78c3.033-2.852 7.116-4.6 11.608-4.6 9.359 0 16.946 7.587 16.946 16.946 0 4.495-1.75 8.58-4.597 11.605l-166.854 166.853c-8.083 7.915-13.098 18.95-13.098 31.156 0 24.082 19.522 43.604 43.604 43.604 12.244 0 23.309-5.047 31.239-13.182l204.786-201.762 1.163-312.221v-0.005c-0.053-21.001-17.091-38.010-38.103-38.016h-100.123c-20.994 0.040-38.006 17.048-38.053 38.045l-0.512 148.050v0.002c-0.008 4.669-1.905 8.895-4.966 11.955l-200.901 200.994zM839.487 646.686v-0.034c-0.004 0.226-0.006 0.452-0.006 0.679 0 19.772 16.028 35.8 35.8 35.8s35.8-16.028 35.8-35.8c0-0.227-0.002-0.453-0.006-0.645v-123.218l0.339-0.193c-11.839 7.269-25.77 11.461-40.681 11.461-11.305 0-22.046-2.409-31.246-6.545v118.496zM635.050 286.289l-1.163-312.268v-0.007c0.073-20.988 17.109-37.98 38.114-37.98 0 0 0 0 0 0h100.135c20.971 0.040 37.968 17.016 38.041 37.987l0.5 148.108v0.004c0.018 4.673 1.922 8.902 4.99 11.965l200.878 200.983v389.055c0 19.772-16.028 35.8-35.8 35.8s-35.8-16.028-35.8-35.8v-243.575c0-0.337 0-0.675 0-1l-0.146 0.549c2.231-7.232 3.433-14.917 3.433-22.881 0-21.396-8.67-40.768-22.687-54.792l-166.845-166.787c-3.064-3.048-7.287-4.932-11.951-4.932-9.359 0-16.946 7.587-16.946 16.946 0 4.66 1.881 8.881 4.925 11.944l166.867 166.925c8.126 7.918 13.173 18.982 13.173 31.224 0 24.076-19.517 43.593-43.593 43.593-12.242 0-23.306-5.047-31.234-13.182zM313.221 653.525c62.737-73.135 144.666-138.955 193.609-178.279l1.454-1.163 1.465 1.163c48.943 39.324 130.86 105.144 193.585 178.233 72.88 84.964 99.526 155.855 79.172 210.706l-0.307 0.93c-18.663 49.556-65.63 85.242-121.445 87.36-53.991 2.094-105.539-27.961-138.071-80.405l-0.041-0.070c-2.998-4.77-8.308-7.94-14.358-7.94s-11.359 3.17-14.399 8.011c-31.473 50.723-80.823 80.509-132.825 80.509-1.768 0-3.501-0.023-5.257-0.105l-0.249-0.008c-55.557-2.108-102.521-37.772-121.515-88.236-20.331-54.852 6.292-125.8 79.183-210.706zM105.469 523.467l-0.338-0.193c11.831 7.269 25.755 11.461 40.658 11.461 11.309 0 22.055-2.414 31.256-6.557v118.508c0 19.765-16.023 35.788-35.788 35.788s-35.788-16.023-35.788-35.788v-123.23z" />
<glyph unicode="&#xe972;" glyph-name="Polygon-17" horiz-adv-x="1216" d="M912 960l-75.968-384 379.968-128-379.968-128 76.032-384-304.064 256-304-256 76.032 384-380.032 128 380.032 128-76.032 384 304-256z" />
<glyph unicode="&#xe973;" glyph-name="email" horiz-adv-x="1367" d="M797.846 294.149c-32.097-21.718-71.67-34.67-114.267-34.67s-82.171 12.952-114.995 35.133l0.728-0.463-560.194 373.344c-3.090 2.077-6.129 4.255-9.117 6.433v-612.009c0-0.015 0-0.033 0-0.051 0-69.486 56.33-125.816 125.816-125.816 0.018 0 0.036 0 0.053 0h1115.472c0.015 0 0.033 0 0.051 0 69.486 0 125.816 56.33 125.816 125.816 0 0.018 0 0.036 0 0.053v-0.003 612.111c-2.988-2.229-6.027-4.407-9.117-6.483zM53.538 734.099l560.245-373.496c19.609-13.282 43.79-21.203 69.822-21.203s50.213 7.922 70.265 21.486l-0.443-0.283 560.245 373.496c32.462 21.806 53.538 58.383 53.538 99.882 0 0.072 0 0.143 0 0.215v-0.011c-0.086 69.451-56.365 125.729-125.808 125.816h-1115.584c-69.469-0.086-125.758-56.393-125.816-125.861v-0.005c0-0.030 0-0.066 0-0.102 0-41.499 21.076-78.075 53.108-99.61l0.43-0.272z" />
<glyph unicode="&#xe974;" glyph-name="Page-1" d="M424.077 360.039c-64.381 60.646-109.214 141.4-124.444 232.191l-0.336 2.421c-0.181 1.337-0.284 2.883-0.284 4.453 0 9.739 3.967 18.551 10.373 24.909l0.002 0.002 79.064 79.216c6.392 6.392 10.345 15.222 10.345 24.975 0 6.941-2.002 13.415-5.461 18.875l0.086-0.145-125.918 195.308c-6.337 10.080-17.399 16.682-30.002 16.682-5.74 0-11.161-1.369-15.953-3.799l0.201 0.093-202.175-95.226c-11.727-5.856-19.64-17.769-19.64-31.531 0-1.241 0.064-2.467 0.19-3.675l-0.013 0.151c10.585-100.651 54.48-348.011 297.59-591.159s490.47-287.005 591.159-297.59c1.073-0.116 2.318-0.183 3.578-0.183 13.749 0 25.653 7.898 31.423 19.405l0.092 0.203 95.226 202.175c2.312 4.569 3.666 9.961 3.666 15.669 0 12.508-6.501 23.497-16.309 29.773l-0.142 0.085-195.535 126.032c-5.321 3.382-11.802 5.39-18.753 5.39-9.742 0-18.563-3.944-24.953-10.322l-79.063-79.101c-6.36-6.408-15.172-10.375-24.911-10.375-1.57 0-3.116 0.103-4.631 0.303l0.178-0.019c-93.227 15.561-173.994 60.395-234.456 124.572l-0.194 0.208zM812.227 412.66c-19.507 0-35.321 15.814-35.321 35.321v0c-0.151 146.212-118.638 264.698-264.835 264.849h-0.014c-0.345-0.012-0.75-0.019-1.157-0.019-19.507 0-35.321 15.814-35.321 35.321s15.814 35.321 35.321 35.321c0.407 0 0.812-0.007 1.216-0.021l-0.059 0.002c185.179-0.216 335.237-150.274 335.453-335.432v-0.021c0-19.494-15.792-35.299-35.281-35.321h-0.002zM988.945 412.698c-19.507 0-35.321 15.814-35.321 35.321v0c-0.281 243.706-197.81 441.183-441.51 441.377h-0.019c-0.345-0.012-0.75-0.019-1.157-0.019-19.507 0-35.321 15.814-35.321 35.321s15.814 35.321 35.321 35.321c0.407 0 0.812-0.007 1.216-0.021l-0.059 0.002c282.768-0.237 511.933-229.402 512.171-512.147v-0.023c0-19.507-15.814-35.321-35.321-35.321v0z" />
<glyph unicode="&#xe975;" glyph-name="Polygon-15" horiz-adv-x="1216" d="M402.161 793.668l51.534-260.378-253.205-85.29 253.205-85.29-51.534-260.378 205.839 173.338 205.839-173.338-51.534 260.378 253.205 85.29-253.205 85.29 51.534 260.378-205.839-173.338-205.839 173.338zM304 960l304-256 304 256-76-384 380-128-380-128 76-384-304 256-304-256 76 384-380 128 380 128-76 384z" />
<glyph unicode="&#xe976;" glyph-name="location" d="M936.657 242.059c-4.344 2.591-9.58 4.122-15.174 4.122-16.563 0-29.99-13.427-29.99-29.99 0-11.568 6.55-21.606 16.143-26.609l0.166-0.079c35.664-19.647 56.219-41.402 56.219-59.72 0-22.403-31.741-57.127-120.835-87.538-93.428-29.52-200.873-46.529-312.292-46.529-6.644 0-13.273 0.060-19.888 0.181l0.994-0.014c-5.621-0.106-12.25-0.167-18.894-0.167-111.418 0-218.864 17.009-319.881 48.573l7.59-2.044c-89.094 30.249-120.835 64.843-120.835 87.538 0 18.318 20.49 40.073 56.219 59.72 9.342 5.205 15.556 15.024 15.556 26.294 0 16.568-13.431 30-30 30-5.298 0-10.276-1.374-14.596-3.784l0.152 0.078c-39.814-21.755-87.311-59.169-87.311-112.308 0-40.754 28.012-98.853 161.524-144.211 99.247-31.547 213.396-49.727 331.791-49.727 6.57 0 13.127 0.056 19.671 0.167l-0.986-0.013c5.558-0.098 12.115-0.154 18.685-0.154 118.395 0 232.544 18.18 339.808 51.9l-8.017-2.173c133.512 45.39 161.524 103.457 161.524 144.211 0 53.139-47.497 90.553-87.343 112.276zM285.504 85.755c68.029-16.953 146.127-26.68 226.496-26.68s158.468 9.727 233.182 28.067l-6.685-1.388c74.569 21.042 112.276 51.518 112.276 90.553s-37.771 69.512-112.276 90.553c-16.535 4.669-34.529 8.786-53.658 12.255q-15.595-26.91-32.648-55.408c21.171-3.242 41.046-7.068 59.104-11.672 30.536-4.329 57.508-17.093 79.173-35.828l-0.194 0.164c-21.47-18.572-48.442-31.336-78.163-35.568l-0.816-0.095c-56.251-13.621-120.831-21.432-187.235-21.432-0.615 0-1.23 0.001-1.845 0.002h0.095c-3.404-0.259-6.841-0.389-10.31-0.389s-6.873 0-10.31 0.389c-0.526-0.001-1.149-0.002-1.772-0.002-66.397 0-130.969 7.812-192.848 22.566l5.635-1.134c-30.537 4.327-57.509 17.091-79.173 35.828l0.194-0.164c21.471 18.571 48.442 31.334 78.162 35.568l0.816 0.095c18.059 4.604 37.933 8.494 59.104 11.672q-17.054 28.498-32.648 55.408c-19.129-3.502-37.123-7.587-53.658-12.255-74.569-21.042-112.276-51.518-112.276-90.553s37.771-69.512 112.276-90.553zM512 178.642c0.067 0 0.147 0 0.227 0 27.258 0 51.144 14.437 64.429 36.081l0.188 0.329c97.621 159.708 213.982 370.188 213.982 465.994 0 153.991-124.834 278.825-278.825 278.825s-278.825-124.834-278.825-278.825v0c0-95.773 116.361-306.286 213.982-465.994 13.473-21.973 37.359-36.41 64.616-36.41 0.080 0 0.159 0 0.239 0h-0.012zM399.757 700.272c0 61.901 50.18 112.081 112.081 112.081s112.081-50.18 112.081-112.081c0-61.901-50.18-112.081-112.081-112.081v0c-61.871 0.074-112.007 50.21-112.081 112.074v0.007z" />
<glyph unicode="&#xe977;" glyph-name="fax-machine" horiz-adv-x="964" d="M206.134 600.029v-664.029h757.858v664.029zM426.486 54.932h-60.008v60.249h60.008zM426.486 167.077h-60.008v60.249h60.008zM552.206 54.932h-60.008v60.249h60.008zM552.206 167.077h-60.008v60.249h60.008zM677.927 54.932h-60.008v60.249h60.008zM677.927 167.077h-60.008v60.249h60.008zM803.648 54.932h-60.008v60.249h60.008zM803.648 167.077h-60.008v60.249h60.008zM803.648 288.821h-437.17v198.261h437.17zM426.486 427.033h317.314v-78.083h-317.314zM883.257 720.006h-239.793v239.994h-357.48v-299.962h597.273zM703.272 942.407v-162.433h162.433zM0 661.564h146.125v-725.524h-146.125z" />
<glyph unicode="&#xe978;" glyph-name="right-arrow" horiz-adv-x="1365" d="M24.226 506.443v0l431.579 429.506c14.815 14.23 34.974 22.992 57.179 22.992 45.616 0 82.594-36.979 82.594-82.594 0-22.342-8.871-42.612-23.283-57.48l0.021 0.021-289.717-288.318h999.624c45.609 0 82.582-36.973 82.582-82.582s-36.973-82.582-82.582-82.582h-999.624l289.717-288.318c14.391-14.847 23.262-35.117 23.262-57.459 0-45.616-36.979-82.594-82.594-82.594-22.205 0-42.364 8.763-57.207 23.019l0.028-0.027-431.504 429.431c-15.011 14.965-24.298 35.663-24.298 58.53 0 22.83 9.257 43.498 24.223 58.455v0z" />
<glyph unicode="&#xe979;" d="M302.080 270.848c-13.312 14.336-37.888 16.384-53.248 4.096v0l-35.84-35.84c-8.192-8.192-12.288-18.432-12.288-29.696 0-22.528 19.456-41.984 40.96-40.96 13.312 0 24.576 6.144 32.768 15.36l27.648 27.648c6.144 6.144 9.216 13.312 11.264 20.48 3.072 14.336-1.024 29.696-11.264 38.912v0z" />
<glyph unicode="&#xe97a;" d="M202.752 391.68c-16.384 16.384-41.984 16.384-58.368 0-4.096-4.096-26.624-26.624-30.72-30.72-36.864-39.936 18.432-95.232 58.368-58.368 0 0 26.624 26.624 30.72 30.72 16.384 16.384 16.384 43.008 0 58.368z" />
<glyph unicode="&#xe97b;" d="M386.048 176.64c-11.264 0-21.504-4.096-29.696-12.288l-30.72-30.72c0 0 0 0 0 0-15.36-15.36-15.36-43.008 0-58.368 16.384-16.384 41.984-16.384 58.368 0l30.72 30.72c26.624 25.6 8.192 70.656-28.672 70.656v0z" />
<glyph unicode="&#xe97c;" d="M663.552 635.392c-63.488-39.936-149.504-32.768-204.8 22.528l-72.704 72.704 90.112 90.112c-96.256 108.544-266.24 115.712-369.664 11.264-103.424-102.4-97.28-272.384 11.264-369.664 78.848 44.032 176.128-17.408 169.984-107.52 52.224-6.144 96.256-53.248 99.328-105.472 49.152 1.024 98.304-35.84 109.568-83.968 40.96 11.264 87.040-3.072 114.688-34.816l1.024 1.024c40.96-24.576 83.968 25.6 53.248 62.464v0c-1.024 1.024-163.84 163.84-163.84 163.84 13.312 13.312 38.912 38.912 51.2 51.2l161.792-161.792c39.936-36.864 95.232 18.432 58.368 58.368l-161.792 161.792c13.312 13.312 38.912 38.912 51.2 51.2 36.864-36.864 124.928-124.928 161.792-161.792 15.36-16.384 43.008-16.384 58.368 0 16.384 16.384 16.384 41.984 0 58.368l-219.136 220.16z" />
<glyph unicode="&#xe97d;" d="M950.272 832c-98.304 98.304-259.072 98.304-358.4 0-19.456-19.456-83.968-83.968-102.4-102.4l20.48-20.48c35.84-35.84 94.208-35.84 130.048 0l25.6 25.6c13.312-14.336 265.216-265.216 272.384-272.384 109.568 97.28 115.712 267.264 12.288 369.664z" />
<glyph unicode="&#xe97e;" d="M555.008 84.48c-16.384 16.384-41.984 16.384-58.368 0l-30.72-30.72c-16.384-15.36-16.384-43.008 0-58.368 15.36-16.384 43.008-16.384 58.368 0l30.72 30.72c16.384 14.336 16.384 43.008 0 58.368v0z" />
<glyph unicode="&#xe97f;" d="M272.384 263.68c-14.336 14.336-37.888 16.384-54.272 4.096v0l-35.84-35.84c-8.192-8.192-12.288-18.432-12.288-29.696 0-22.528 19.456-41.984 41.984-41.984 13.312 0 24.576 6.144 32.768 16.384l27.648 27.648c6.144 6.144 10.24 13.312 11.264 20.48 3.072 14.336-1.024 28.672-11.264 38.912v0z" />
<glyph unicode="&#xe980;" d="M172.032 385.536c-16.384 16.384-43.008 16.384-59.392 0-4.096-4.096-27.648-27.648-31.744-31.744-37.888-40.96 18.432-96.256 59.392-59.392 0 0 27.648 27.648 31.744 31.744 16.384 17.408 16.384 44.032 0 59.392z" />
<glyph unicode="&#xe981;" d="M357.376 168.448c-11.264 0-21.504-4.096-29.696-12.288l-30.72-31.744c0 0 0 0 0 0-15.36-15.36-15.36-43.008 0-58.368 16.384-16.384 43.008-16.384 59.392 0l31.744 31.744c25.6 25.6 6.144 70.656-30.72 70.656v0z" />
<glyph unicode="&#xe982;" d="M637.952 632.32c-64.512-40.96-150.528-32.768-206.848 23.552l-72.704 72.704 91.136 91.136c-98.304 109.568-270.336 116.736-374.784 11.264-104.448-104.448-98.304-276.48 11.264-373.76 79.872 45.056 178.176-17.408 172.032-108.544 53.248-6.144 97.28-53.248 100.352-106.496 50.176 1.024 99.328-35.84 111.616-84.992 40.96 11.264 88.064-3.072 115.712-35.84l1.024 1.024c40.96-24.576 84.992 25.6 53.248 62.464v0c-1.024 1.024-165.888 165.888-165.888 165.888 13.312 13.312 38.912 38.912 52.224 52.224l163.84-163.84c40.96-37.888 96.256 18.432 59.392 59.392l-163.84 163.84c13.312 13.312 38.912 38.912 52.224 52.224 36.864-36.864 125.952-125.952 163.84-163.84 15.36-16.384 44.032-16.384 59.392 0 16.384 16.384 16.384 43.008 0 59.392l-223.232 222.208z" />
<glyph unicode="&#xe983;" d="M927.744 830.976c-100.352 100.352-262.144 100.352-362.496 0-19.456-19.456-84.992-84.992-103.424-103.424l20.48-20.48c35.84-35.84 95.232-35.84 132.096 0l25.6 25.6c14.336-14.336 268.288-268.288 275.456-275.456 110.592 98.304 116.736 270.336 12.288 373.76z" />
<glyph unicode="&#xe984;" d="M528.384 74.24c-16.384 16.384-43.008 16.384-59.392 0l-31.744-31.744c-16.384-15.36-16.384-44.032 0-59.392 15.36-16.384 43.008-16.384 59.392 0l31.744 31.744c16.384 16.384 16.384 44.032 0 59.392v0z" />
<glyph unicode="&#xe985;" d="M500.736 379.392c1.024-9.216 9.216-16.384 18.432-16.384s17.408 7.168 18.432 16.384l3.072 24.576h-41.984l2.048-24.576z" />
<glyph unicode="&#xe986;" d="M519.168 655.872v0c-49.152 0-88.064-38.912-88.064-87.040 0-31.744 16.384-60.416 44.032-75.776 8.192-5.12 13.312-13.312 14.336-22.528l1.024-6.144h56.32l1.024 6.144c1.024 9.216 6.144 17.408 14.336 22.528 26.624 15.36 44.032 45.056 44.032 75.776 0 48.128-38.912 87.040-87.040 87.040v0z" />
<glyph unicode="&#xe987;" d="M516.096 960c-59.392 0-117.76-13.312-168.96-37.888-91.136-44.032-228.352-159.744-228.352-360.448v-63.488l-78.848-143.36c-6.144-11.264-9.216-23.552-9.216-33.792s2.048-19.456 7.168-28.672c9.216-15.36 26.624-24.576 48.128-24.576h32.768v-140.288c0-48.128 38.912-87.040 87.040-87.040h1.024l106.496 16.384v-103.424c0-9.216 7.168-17.408 17.408-17.408h306.176c81.92 0 149.504 66.56 149.504 149.504v185.344c80.896 74.752 126.976 181.248 126.976 290.816-2.048 220.16-179.2 398.336-397.312 398.336v0zM488.448 810.496c0 16.384 13.312 29.696 29.696 29.696s29.696-13.312 29.696-29.696v-24.576c0-16.384-13.312-29.696-29.696-29.696s-29.696 13.312-29.696 29.696v24.576zM302.080 540.16h-24.576c-16.384 0-29.696 13.312-29.696 29.696s13.312 29.696 29.696 29.696h24.576c16.384 0 29.696-13.312 29.696-29.696s-13.312-29.696-29.696-29.696zM336.896 695.808l-17.408 17.408c-6.144 6.144-9.216 13.312-9.216 21.504 0 16.384 13.312 29.696 29.696 29.696 7.168 0 15.36-3.072 21.504-9.216l17.408-17.408c6.144-6.144 9.216-13.312 9.216-21.504 0-7.168-3.072-15.36-9.216-21.504s-13.312-9.216-21.504-9.216-15.36 5.12-20.48 10.24v0zM605.184 449.024l-9.216-76.8c-5.12-38.912-37.888-68.608-77.824-68.608s-72.704 29.696-77.824 68.608l-9.216 76.8c-37.888 27.648-60.416 71.68-60.416 119.808 0 81.92 65.536 147.456 147.456 147.456h1.024c80.896 0 146.432-66.56 146.432-147.456 0-48.128-22.528-92.16-60.416-119.808v0zM678.912 687.616c-16.384 0-29.696 13.312-29.696 29.696 0 7.168 3.072 15.36 9.216 21.504l17.408 17.408c6.144 6.144 13.312 9.216 21.504 9.216 7.168 0 15.36-3.072 21.504-9.216s9.216-13.312 9.216-21.504c0-7.168-3.072-15.36-9.216-21.504l-17.408-17.408c-7.168-5.12-14.336-8.192-22.528-8.192zM759.808 540.16h-24.576c-16.384 0-29.696 13.312-29.696 29.696s13.312 29.696 29.696 29.696h24.576c16.384 0 29.696-13.312 29.696-29.696s-13.312-29.696-29.696-29.696z" />
<glyph unicode="&#xe988;" d="M470.016 379.392c1.024-9.216 9.216-16.384 18.432-16.384s17.408 7.168 18.432 16.384l3.072 24.576h-41.984l2.048-24.576z" />
<glyph unicode="&#xe989;" d="M488.448 655.872v0c-49.152 0-88.064-38.912-88.064-87.040 0-31.744 16.384-60.416 44.032-75.776 8.192-5.12 13.312-13.312 14.336-22.528l1.024-6.144h56.32l1.024 6.144c1.024 9.216 6.144 17.408 14.336 22.528 26.624 15.36 44.032 45.056 44.032 75.776 0 48.128-38.912 87.040-87.040 87.040v0z" />
<glyph unicode="&#xe98a;" d="M485.376 960c-59.392 0-117.76-13.312-168.96-37.888-91.136-44.032-228.352-159.744-228.352-360.448v-63.488l-78.848-143.36c-6.144-11.264-9.216-23.552-9.216-33.792s2.048-19.456 7.168-28.672c9.216-15.36 26.624-24.576 48.128-24.576h32.768v-140.288c0-48.128 38.912-87.040 87.040-87.040h1.024l106.496 16.384v-103.424c0-9.216 7.168-17.408 17.408-17.408h306.176c81.92 0 149.504 66.56 149.504 149.504v185.344c80.896 74.752 126.976 181.248 126.976 290.816-2.048 220.16-179.2 398.336-397.312 398.336v0zM457.728 810.496c0 16.384 13.312 29.696 29.696 29.696s29.696-13.312 29.696-29.696v-24.576c0-16.384-13.312-29.696-29.696-29.696s-29.696 13.312-29.696 29.696v24.576zM271.36 540.16h-24.576c-16.384 0-29.696 13.312-29.696 29.696s13.312 29.696 29.696 29.696h24.576c16.384 0 29.696-13.312 29.696-29.696s-13.312-29.696-29.696-29.696zM306.176 695.808l-17.408 17.408c-6.144 6.144-9.216 13.312-9.216 21.504 0 16.384 13.312 29.696 29.696 29.696 7.168 0 15.36-3.072 21.504-9.216l17.408-17.408c6.144-6.144 9.216-13.312 9.216-21.504 0-7.168-3.072-15.36-9.216-21.504s-13.312-9.216-21.504-9.216-15.36 5.12-20.48 10.24v0zM574.464 449.024l-9.216-76.8c-5.12-38.912-37.888-68.608-77.824-68.608s-72.704 29.696-77.824 68.608l-9.216 76.8c-37.888 27.648-60.416 71.68-60.416 119.808 0 81.92 65.536 147.456 147.456 147.456h1.024c80.896 0 146.432-66.56 146.432-147.456 0-48.128-22.528-92.16-60.416-119.808v0zM648.192 687.616c-16.384 0-29.696 13.312-29.696 29.696 0 7.168 3.072 15.36 9.216 21.504l17.408 17.408c6.144 6.144 13.312 9.216 21.504 9.216 7.168 0 15.36-3.072 21.504-9.216s9.216-13.312 9.216-21.504c0-7.168-3.072-15.36-9.216-21.504l-17.408-17.408c-7.168-5.12-14.336-8.192-22.528-8.192zM729.088 540.16h-24.576c-16.384 0-29.696 13.312-29.696 29.696s13.312 29.696 29.696 29.696h24.576c16.384 0 29.696-13.312 29.696-29.696s-13.312-29.696-29.696-29.696z" />
<glyph unicode="&#xe98b;" d="M523.264 819.712c16.384 0 29.696 13.312 29.696 29.696v58.368c0 16.384-13.312 29.696-29.696 29.696s-29.696-13.312-29.696-29.696v-58.368c1.024-16.384 14.336-29.696 29.696-29.696z" />
<glyph unicode="&#xe98c;" d="M661.504 769.536l58.368 58.368c11.264 11.264 11.264 29.696 0 40.96s-29.696 11.264-40.96 0l-58.368-58.368c-11.264-11.264-11.264-29.696 0-40.96s29.696-11.264 40.96 0z" />
<glyph unicode="&#xe98d;" d="M386.048 769.536c11.264-11.264 29.696-11.264 40.96 0s11.264 29.696 0 40.96l-58.368 59.392c-11.264 11.264-29.696 11.264-40.96 0s-11.264-29.696 0-40.96l58.368-59.392z" />
<glyph unicode="&#xe98e;" d="M286.72 522.752c0 64.512-52.224 117.76-117.76 117.76s-116.736-53.248-116.736-117.76 52.224-117.76 117.76-117.76 116.736 52.224 116.736 117.76z" />
<glyph unicode="&#xe98f;" d="M523.264 699.904c-48.128 0-88.064-39.936-88.064-88.064 0-112.64-94.208-206.848-206.848-206.848h-58.368c-80.896 0-146.432-65.536-146.432-146.432v-292.864c0-16.384 13.312-29.696 29.696-29.696h233.472c16.384 0 28.672 13.312 28.672 29.696v274.432c171.008 39.936 294.912 194.56 294.912 372.736 1.024 48.128-37.888 87.040-87.040 87.040z" />
<glyph unicode="&#xe990;" d="M994.304 522.752c0 64.512-52.224 117.76-117.76 117.76s-117.76-52.224-117.76-117.76 52.224-117.76 117.76-117.76 117.76 52.224 117.76 117.76z" />
<glyph unicode="&#xe991;" d="M877.568 404.992h-58.368c-67.584 0-129.024 34.816-165.888 84.992-17.408-60.416-47.104-115.712-87.040-162.816 47.104-40.96 104.448-73.728 165.888-88.064v-274.432c0-16.384 12.288-29.696 28.672-29.696h234.496c16.384 0 29.696 13.312 29.696 29.696v293.888c-1.024 80.896-66.56 146.432-147.456 146.432z" />
<glyph unicode="&#xe992;" d="M501.76 819.712c16.384 0 29.696 13.312 29.696 29.696v58.368c0 16.384-13.312 29.696-29.696 29.696s-29.696-13.312-29.696-29.696v-58.368c1.024-16.384 13.312-29.696 29.696-29.696z" />
<glyph unicode="&#xe993;" d="M640 769.536l58.368 58.368c11.264 11.264 11.264 29.696 0 40.96s-29.696 11.264-40.96 0l-58.368-58.368c-11.264-11.264-11.264-29.696 0-40.96s29.696-11.264 40.96 0z" />
<glyph unicode="&#xe994;" d="M363.52 769.536c11.264-11.264 29.696-11.264 40.96 0s11.264 29.696 0 40.96l-58.368 58.368c-11.264 11.264-29.696 11.264-40.96 0s-11.264-29.696 0-40.96l58.368-58.368z" />
<glyph unicode="&#xe995;" d="M265.216 522.752c0 64.512-52.224 117.76-117.76 117.76s-116.736-53.248-116.736-117.76 52.224-117.76 117.76-117.76 116.736 52.224 116.736 117.76z" />
<glyph unicode="&#xe996;" d="M501.76 699.904c-48.128 0-88.064-39.936-88.064-88.064 0-112.64-94.208-206.848-206.848-206.848h-58.368c-80.896 0-146.432-65.536-146.432-146.432v-292.864c0-16.384 13.312-29.696 29.696-29.696h234.496c16.384 0 28.672 13.312 28.672 29.696v274.432c171.008 39.936 294.912 194.56 294.912 372.736 0 48.128-39.936 87.040-88.064 87.040z" />
<glyph unicode="&#xe997;" d="M972.8 522.752c0 64.512-52.224 117.76-117.76 117.76s-117.76-52.224-117.76-117.76 52.224-117.76 117.76-117.76 117.76 52.224 117.76 117.76z" />
<glyph unicode="&#xe998;" d="M856.064 404.992h-58.368c-67.584 0-129.024 34.816-165.888 84.992-17.408-60.416-47.104-115.712-87.040-162.816 47.104-40.96 104.448-73.728 165.888-88.064v-274.432c0-16.384 12.288-29.696 28.672-29.696h233.472c16.384 0 29.696 13.312 29.696 29.696v293.888c0 80.896-65.536 146.432-146.432 146.432z" />
<glyph unicode="&#xe999;" d="M325.632 489.984c14.336 0 25.6-11.264 25.6-25.6v-129.024l-51.2 55.296v73.728c0 14.336 11.264 25.6 25.6 25.6zM239.616 644.608c14.336 0 25.6-11.264 25.6-25.6v-192.512l-11.264 12.288c-9.216 10.24-23.552 16.384-37.888 16.384h-2.048v163.84c0 14.336 11.264 25.6 25.6 25.6v0zM153.6 747.008c14.336 0 25.6-11.264 25.6-25.6v-279.552c-7.168-7.168-13.312-16.384-15.36-26.624l-35.84 45.056v261.12c0 14.336 11.264 25.6 25.6 25.6zM454.656-42.496h-172.032v57.344c0 22.528-9.216 44.032-25.6 60.416l-133.12 133.12-99.328 182.272v287.744c0 9.216 3.072 17.408 10.24 24.576 6.144 6.144 15.36 10.24 24.576 10.24 18.432 0 34.816-15.36 34.816-34.816v-223.232c0-4.096 1.024-7.168 4.096-10.24l189.44-240.64 26.624 21.504-117.76 148.48v29.696c0 9.216 8.192 17.408 17.408 17.408h2.048c5.12 0 9.216-2.048 12.288-5.12l211.968-227.328c9.216-9.216 14.336-22.528 14.336-34.816v-196.608z" />
<glyph unicode="&#xe99a;" d="M891.904 747.008c14.336 0 25.6-11.264 25.6-25.6v-260.096l-35.84-45.056c-2.048 10.24-8.192 19.456-15.36 26.624v278.528c0 14.336 11.264 25.6 25.6 25.6v0zM805.888 644.608c14.336 0 25.6-11.264 25.6-25.6v-162.816h-2.048c-14.336 0-27.648-6.144-37.888-16.384l-11.264-12.288v191.488c0 14.336 12.288 25.6 25.6 25.6v0zM694.272 464.384c0 14.336 11.264 25.6 25.6 25.6s25.6-11.264 25.6-25.6v-73.728l-51.2-55.296v129.024zM1020.928 390.656l-99.328-182.272-133.12-133.12c-16.384-16.384-25.6-37.888-25.6-60.416v-57.344h-171.008v195.584c0 13.312 5.12 25.6 14.336 34.816l211.968 227.328c3.072 3.072 8.192 5.12 12.288 5.12h2.048c9.216 0 17.408-8.192 17.408-17.408v-29.696l-116.736-147.456 26.624-21.504 189.44 240.64c2.048 3.072 4.096 7.168 4.096 10.24v223.232c0 19.456 15.36 34.816 34.816 34.816s34.816-15.36 34.816-34.816l-2.048-287.744z" />
<glyph unicode="&#xe99b;" d="M523.264 581.12l-185.344 168.96c-26.624 23.552-39.936 58.368-37.888 94.208s20.48 68.608 49.152 89.088c19.456 13.312 41.984 20.48 65.536 20.48 26.624 0 52.224-9.216 73.728-26.624l24.576-20.48c6.144-5.12 15.36-5.12 22.528 0l24.576 20.48c37.888 32.768 94.208 35.84 136.192 6.144 28.672-20.48 47.104-53.248 49.152-89.088s-11.264-70.656-37.888-94.208l-184.32-168.96z" />
<glyph unicode="&#xe99c;" d="M303.104 489.984c14.336 0 25.6-11.264 25.6-25.6v-129.024l-51.2 55.296v73.728c0 14.336 12.288 25.6 25.6 25.6zM218.112 644.608c14.336 0 25.6-11.264 25.6-25.6v-192.512l-11.264 12.288c-9.216 10.24-23.552 16.384-37.888 16.384h-2.048v163.84c-1.024 14.336 11.264 25.6 25.6 25.6v0zM132.096 747.008c14.336 0 25.6-11.264 25.6-25.6v-279.552c-7.168-7.168-13.312-16.384-15.36-26.624l-35.84 45.056v261.12c-1.024 14.336 11.264 25.6 25.6 25.6zM432.128-42.496h-172.032v57.344c0 22.528-9.216 44.032-25.6 60.416l-133.12 133.12-98.304 182.272v287.744c0 9.216 3.072 17.408 10.24 24.576 6.144 6.144 15.36 10.24 24.576 10.24 18.432 0 34.816-15.36 34.816-34.816v-223.232c0-4.096 1.024-7.168 4.096-10.24l189.44-240.64 26.624 21.504-117.76 148.48v29.696c0 9.216 8.192 17.408 17.408 17.408h2.048c5.12 0 9.216-2.048 12.288-5.12l211.968-227.328c9.216-9.216 14.336-22.528 14.336-34.816v-196.608z" />
<glyph unicode="&#xe99d;" d="M870.4 747.008c14.336 0 25.6-11.264 25.6-25.6v-260.096l-35.84-45.056c-2.048 10.24-8.192 19.456-15.36 26.624v278.528c0 14.336 11.264 25.6 25.6 25.6v0zM784.384 644.608c14.336 0 25.6-11.264 25.6-25.6v-162.816h-2.048c-14.336 0-27.648-6.144-37.888-16.384l-11.264-12.288v191.488c0 14.336 11.264 25.6 25.6 25.6v0zM672.768 464.384c0 14.336 11.264 25.6 25.6 25.6s25.6-11.264 25.6-25.6v-73.728l-51.2-55.296v129.024zM999.424 390.656l-99.328-183.296-133.12-133.12c-16.384-16.384-25.6-37.888-25.6-60.416v-57.344h-172.032v196.608c0 13.312 5.12 25.6 14.336 34.816l211.968 227.328c3.072 3.072 8.192 5.12 12.288 5.12h2.048c9.216 0 17.408-8.192 17.408-17.408v-29.696l-116.736-147.456 26.624-21.504 189.44 240.64c2.048 3.072 4.096 7.168 4.096 10.24v223.232c0 19.456 15.36 34.816 34.816 34.816s34.816-15.36 34.816-34.816l-1.024-287.744z" />
<glyph unicode="&#xe99e;" d="M500.736 581.12l-184.32 168.96c-26.624 23.552-39.936 58.368-37.888 94.208s20.48 68.608 49.152 89.088c19.456 13.312 41.984 20.48 65.536 20.48 26.624 0 52.224-9.216 73.728-26.624l24.576-20.48c6.144-5.12 15.36-5.12 22.528 0l24.576 20.48c38.912 33.792 96.256 35.84 138.24 6.144 28.672-20.48 47.104-53.248 49.152-89.088s-11.264-70.656-37.888-94.208l-187.392-168.96z" />
<glyph unicode="&#xe99f;" d="M998.4 345.6c-50.176 18.432-106.496 14.336-153.6-11.264-1.024 0-184.32-82.944-184.32-82.944-13.312-10.24-28.672-15.36-44.032-15.36h-114.688c-14.336 0-25.6 11.264-25.6 25.6s11.264 25.6 25.6 25.6h115.712c35.84 0 36.864 74.752 1.024 77.824l-160.768 1.024c-28.672 0-57.344 18.432-87.040 19.456-30.72 1.024-59.392-7.168-84.992-23.552-35.84-23.552-60.416-60.416-76.8-98.304l87.040-220.16h250.88c22.528 0 45.056 6.144 64.512 17.408l389.12 223.232c12.288 10.24 20.48 21.504 17.408 39.936-2.048 9.216-9.216 17.408-19.456 21.504v0z" />
<glyph unicode="&#xe9a0;" d="M47.104 236.032l118.784-300.032 95.232 52.224-118.784 300.032-95.232-52.224z" />
<glyph unicode="&#xe9a1;" d="M763.904 960c-128 0-231.424-104.448-231.424-234.496s103.424-234.496 231.424-234.496 231.424 104.448 231.424 234.496c0 130.048-103.424 234.496-231.424 234.496v0zM790.528 608.768v-38.912h-53.248v35.84c-20.48 3.072-38.912 11.264-55.296 23.552l19.456 54.272c15.36-12.288 37.888-23.552 57.344-23.552 14.336 0 24.576 7.168 24.576 17.408 0 7.168-2.048 15.36-28.672 25.6-32.768 13.312-65.536 31.744-65.536 73.728 0 31.744 19.456 57.344 51.2 67.584v36.864h53.248v-33.792c16.384-2.048 33.792-10.24 48.128-19.456l-19.456-53.248c-14.336 9.216-34.816 18.432-51.2 18.432-17.408 0-19.456-9.216-19.456-13.312 0-6.144 2.048-11.264 31.744-23.552 28.672-12.288 62.464-31.744 62.464-76.8-2.048-32.768-23.552-60.416-55.296-70.656z" />
<glyph unicode="&#xe9a2;" d="M965.632 345.6c-50.176 18.432-106.496 14.336-153.6-11.264-1.024 0-184.32-82.944-184.32-82.944-13.312-10.24-28.672-15.36-44.032-15.36h-115.712c-14.336 0-25.6 11.264-25.6 25.6s11.264 25.6 25.6 25.6h115.712c35.84 0 36.864 74.752 1.024 77.824l-160.768 1.024c-28.672 0-57.344 18.432-87.040 19.456-30.72 1.024-59.392-7.168-84.992-23.552-35.84-23.552-60.416-60.416-76.8-98.304l87.040-220.16h250.88c22.528 0 45.056 6.144 64.512 17.408l389.12 223.232c12.288 10.24 20.48 21.504 17.408 39.936-2.048 9.216-9.216 17.408-18.432 21.504v0z" />
<glyph unicode="&#xe9a3;" d="M14.336 236.032l118.784-300.032 95.232 52.224-118.784 300.032-95.232-52.224z" />
<glyph unicode="&#xe9a4;" d="M730.112 960c-126.976 0-230.4-104.448-230.4-234.496s103.424-234.496 231.424-234.496 231.424 104.448 231.424 234.496c-1.024 130.048-104.448 234.496-232.448 234.496v0zM756.736 608.768v-38.912h-53.248v35.84c-20.48 3.072-38.912 11.264-55.296 23.552l19.456 54.272c15.36-12.288 37.888-23.552 57.344-23.552 14.336 0 24.576 7.168 24.576 17.408 0 7.168-2.048 15.36-28.672 25.6-32.768 13.312-65.536 31.744-65.536 73.728 0 31.744 19.456 57.344 51.2 67.584v36.864h53.248v-33.792c16.384-2.048 33.792-10.24 48.128-19.456l-19.456-53.248c-14.336 9.216-34.816 18.432-51.2 18.432-17.408 0-19.456-9.216-19.456-13.312 0-6.144 2.048-11.264 31.744-23.552 28.672-12.288 62.464-31.744 62.464-76.8-2.048-32.768-22.528-60.416-55.296-70.656z" />
<glyph unicode="&#xe9a5;" d="M313.344 509.44v88.064h-58.368v-88.064h58.368z" />
<glyph unicode="&#xe9a6;" d="M465.92 69.12h-301.056c-16.384 0-29.696 13.312-29.696 29.696s13.312 29.696 29.696 29.696h279.552c-5.12 18.432-9.216 38.912-10.24 58.368h-269.312c-16.384 0-29.696 13.312-29.696 29.696s13.312 29.696 29.696 29.696h269.312c2.048 20.48 6.144 39.936 11.264 58.368h-280.576c-16.384 0-29.696 13.312-29.696 29.696s13.312 29.696 29.696 29.696h304.128c17.408 32.768 39.936 62.464 66.56 88.064h-310.272c-16.384 0-29.696 13.312-29.696 29.696v144.384c0 16.384 13.312 29.696 29.696 29.696 20.48 0 59.392 0 88.064 0v58.368c0 16.384 13.312 29.696 29.696 29.696h116.736c16.384 0 29.696-13.312 29.696-29.696v-88.064h88.064c16.384 0 29.696-13.312 29.696-29.696v-97.28c55.296 28.672 116.736 39.936 175.104 34.816 0 203.776-1.024 386.048-1.024 386.048 0 16.384-13.312 29.696-29.696 29.696h-498.688v-204.8c0-16.384-13.312-29.696-29.696-29.696h-205.824v-736.256c0-16.384 13.312-29.696 29.696-29.696h522.24c-43.008 31.744-78.848 72.704-103.424 119.808v0z" />
<glyph unicode="&#xe9a7;" d="M371.712 684.544h58.368v-175.104h-58.368v175.104z" />
<glyph unicode="&#xe9a8;" d="M193.536 933.376l-158.72-158.72h158.72v158.72z" />
<glyph unicode="&#xe9a9;" d="M488.448 567.808h58.368v-58.368h-58.368v58.368z" />
<glyph unicode="&#xe9aa;" d="M897.024 503.296v357.376c0 16.384-13.312 29.696-29.696 29.696h-29.696c0-2.048 0-29.696 0-364.544 21.504-6.144 40.96-13.312 59.392-22.528v0z" />
<glyph unicode="&#xe9ab;" d="M754.688 477.696c-145.408 0-264.192-118.784-264.192-264.192s118.784-264.192 264.192-264.192 264.192 118.784 264.192 264.192-118.784 264.192-264.192 264.192zM782.336 100.864v-3.072c0-16.384-13.312-29.696-29.696-29.696s-29.696 13.312-29.696 29.696v0c-13.312 3.072-25.6 8.192-34.816 14.336-13.312 9.216-17.408 26.624-8.192 40.96 9.216 13.312 26.624 17.408 40.96 8.192 12.288-8.192 31.744-11.264 41.984-6.144 6.144 3.072 11.264 9.216 12.288 15.36 1.024 13.312-18.432 20.48-30.72 24.576-18.432 7.168-40.96 16.384-54.272 39.936-18.432 33.792-2.048 78.848 34.816 94.208v1.024c0 16.384 13.312 29.696 29.696 29.696s28.672-13.312 29.696-28.672c10.24-3.072 20.48-8.192 27.648-15.36 12.288-11.264 12.288-29.696 2.048-40.96-11.264-12.288-29.696-12.288-40.96-2.048-5.12 4.096-19.456 6.144-26.624 2.048-4.096-3.072-6.144-8.192-4.096-11.264 6.144-11.264 38.912-15.36 63.488-33.792 47.104-37.888 29.696-108.544-23.552-129.024v0z" />
<glyph unicode="&#xe9ac;" d="M293.888 516.608v88.064h-58.368v-88.064h58.368z" />
<glyph unicode="&#xe9ad;" d="M446.464 78.336h-300.032c-16.384 0-29.696 13.312-29.696 29.696s13.312 29.696 29.696 29.696h278.528c-5.12 18.432-9.216 37.888-10.24 58.368h-268.288c-16.384 0-29.696 13.312-29.696 29.696s13.312 29.696 29.696 29.696h268.288c2.048 20.48 6.144 39.936 11.264 58.368h-279.552c-16.384 0-29.696 13.312-29.696 29.696s13.312 29.696 29.696 29.696h303.104c17.408 32.768 39.936 62.464 66.56 87.040h-309.248c-15.36 0-29.696 12.288-29.696 29.696v143.36c0 16.384 13.312 29.696 29.696 29.696 20.48 0 58.368 0 88.064 0v58.368c0 16.384 13.312 29.696 29.696 29.696h116.736c16.384 0 29.696-13.312 29.696-29.696v-87.040h88.064c16.384 0 29.696-13.312 29.696-29.696v-96.256c55.296 28.672 115.712 39.936 174.080 34.816 0 202.752-1.024 384-1.024 384 0 16.384-13.312 29.696-29.696 29.696h-498.688v-204.8c0-16.384-13.312-29.696-29.696-29.696h-203.776v-734.208c0-16.384 13.312-29.696 29.696-29.696h520.192c-44.032 31.744-78.848 72.704-103.424 119.808v0z" />
<glyph unicode="&#xe9ae;" d="M352.256 691.712h58.368v-175.104h-58.368v175.104z" />
<glyph unicode="&#xe9af;" d="M175.104 939.52l-157.696-158.72h158.72v158.72z" />
<glyph unicode="&#xe9b0;" d="M468.992 574.976h58.368v-58.368h-58.368v58.368z" />
<glyph unicode="&#xe9b1;" d="M876.544 510.464v356.352c0 16.384-13.312 29.696-29.696 29.696h-29.696c0-2.048 0-29.696 0-362.496 20.48-7.168 39.936-14.336 59.392-23.552v0z" />
<glyph unicode="&#xe9b2;" d="M734.208 485.888c-145.408 0-263.168-118.784-263.168-263.168s117.76-263.168 263.168-263.168 262.144 117.76 262.144 263.168-117.76 263.168-262.144 263.168zM761.856 110.080v-3.072c0-16.384-13.312-29.696-29.696-29.696s-29.696 13.312-29.696 29.696v0c-13.312 3.072-25.6 8.192-34.816 14.336-13.312 9.216-17.408 26.624-8.192 39.936s26.624 17.408 39.936 8.192c12.288-8.192 31.744-11.264 40.96-6.144 6.144 3.072 11.264 9.216 12.288 15.36 1.024 13.312-18.432 20.48-30.72 24.576-18.432 7.168-40.96 16.384-54.272 39.936-18.432 33.792-2.048 78.848 34.816 94.208v1.024c0 16.384 13.312 29.696 29.696 29.696s28.672-13.312 28.672-28.672c10.24-3.072 20.48-8.192 27.648-15.36 12.288-11.264 12.288-29.696 2.048-40.96-11.264-12.288-29.696-12.288-40.96-2.048-5.12 4.096-19.456 6.144-25.6 2.048-4.096-3.072-6.144-8.192-4.096-11.264 6.144-11.264 38.912-15.36 62.464-33.792 50.176-36.864 32.768-107.52-20.48-128v0z" />
</font>
</defs>
</svg>
